<?xml version="1.0" encoding="UTF-8"?>
<svg version="1.1" xmlns="http://www.w3.org/2000/svg" width="200" height="90">
<path d="M0 0 C66 0 132 0 200 0 C200 29.7 200 59.4 200 90 C134 90 68 90 0 90 C0 60.3 0 30.6 0 0 Z " fill="#FDFEFE" transform="translate(0,0)"/>
<path d="M0 0 C0.66 0.99 1.32 1.98 2 3 C2.66 2.34 3.32 1.68 4 1 C6.625 0.875 6.625 0.875 9 1 C8.46375 1.7425 7.9275 2.485 7.375 3.25 C6.92125 4.1575 6.4675 5.065 6 6 C6.66666667 8.16666667 6.66666667 8.16666667 8 10 C8.33 10.99 8.66 11.98 9 13 C8.236875 12.835 7.47375 12.67 6.6875 12.5 C3.96403764 11.90854604 3.96403764 11.90854604 1 12 C0.34 12.66 -0.32 13.32 -1 14 C-4.05383879 13.96692593 -6.96870896 13.43304158 -10 13 C-10 9.04 -10 5.08 -10 1 C-3.24561404 -0.35087719 -3.24561404 -0.35087719 0 0 Z " fill="#DDECFB" transform="translate(162,39)"/>
<path d="M0 0 C14.88888889 0 14.88888889 0 19 1 C20 2 20 2 20.09765625 4.50390625 C20.08605469 5.51324219 20.07445312 6.52257813 20.0625 7.5625 C20.05347656 8.57441406 20.04445312 9.58632813 20.03515625 10.62890625 C20.02355469 11.41136719 20.01195312 12.19382812 20 13 C18.68 13 17.36 13 16 13 C16 9.7 16 6.4 16 3 C15.01 3.33 14.02 3.66 13 4 C12.67 6.97 12.34 9.94 12 13 C10.68 13 9.36 13 8 13 C8 9.7 8 6.4 8 3 C7.01 3.33 6.02 3.66 5 4 C4.67 6.97 4.34 9.94 4 13 C2.68 13 1.36 13 0 13 C0 8.71 0 4.42 0 0 Z " fill="#1B6AD2" transform="translate(128,39)"/>
<path d="M0 0 C0.99 0 1.98 0 3 0 C3.33 1.98 3.66 3.96 4 6 C4.7425 5.7525 5.485 5.505 6.25 5.25 C9 5 9 5 11.3125 6.5625 C13.45269677 9.65389533 13.54955021 11.31016285 13 15 C11.796875 16.671875 11.796875 16.671875 10 18 C7.51953125 18.29296875 7.51953125 18.29296875 4.8125 18.1875 C3.224375 18.125625 1.63625 18.06375 0 18 C0 12.06 0 6.12 0 0 Z " fill="#1767D1" transform="translate(57,34)"/>
<path d="M0 0 C2.4375 0.4375 2.4375 0.4375 4.25 1.625 C5.80428206 3.99732525 5.66287188 5.65791345 5.4375 8.4375 C3.1275 8.7675 0.8175 9.0975 -1.5625 9.4375 C0.7475 10.0975 3.0575 10.7575 5.4375 11.4375 C5.1075 12.0975 4.7775 12.7575 4.4375 13.4375 C-2.98559859 13.92426056 -2.98559859 13.92426056 -5.5625 11.75 C-6.76112599 8.9781774 -7.08508446 7.42369691 -6.5625 4.4375 C-4.53830677 1.66360557 -3.41064923 0.58230597 0 0 Z " fill="#6195DF" transform="translate(78.5625,38.5625)"/>
<path d="M0 0 C1.6796875 1.19140625 1.6796875 1.19140625 3 3 C3.29296875 5.48046875 3.29296875 5.48046875 3.1875 8.1875 C3.16042969 9.08855469 3.13335937 9.98960938 3.10546875 10.91796875 C3.07066406 11.60503906 3.03585938 12.29210938 3 13 C1.37536158 13.05395478 -0.24978541 13.09277195 -1.875 13.125 C-2.77992187 13.14820313 -3.68484375 13.17140625 -4.6171875 13.1953125 C-7 13 -7 13 -9 11 C-8.46428571 7.46428571 -8.46428571 7.46428571 -7 6 C-5.00041636 5.95919217 -2.99954746 5.95745644 -1 6 C-1 5.01 -1 4.02 -1 3 C-3.31 3.33 -5.62 3.66 -8 4 C-8 3.01 -8 2.02 -8 1 C-5.20129973 -0.39935013 -3.09501208 -0.25265405 0 0 Z " fill="#1666D1" transform="translate(122,39)"/>
<path d="M0 0 C1.32 0 2.64 0 4 0 C5.75 2.5 5.75 2.5 7 5 C7.66 3.35 8.32 1.7 9 0 C10.32 0 11.64 0 13 0 C11.1668733 5.99932374 8.92678249 11.44920563 6 17 C5.01 17 4.02 17 3 17 C3.061875 15.865625 3.12375 14.73125 3.1875 13.5625 C3.21380222 8.66152009 1.76012394 4.526033 0 0 Z " fill="#1767D1" transform="translate(41,40)"/>
<path d="M0 0 C1 1 1 1 1.09765625 3.50390625 C1.08605469 4.51324219 1.07445313 5.52257813 1.0625 6.5625 C1.05347656 7.57441406 1.04445313 8.58632813 1.03515625 9.62890625 C1.02355469 10.41136719 1.01195313 11.19382812 1 12 C0.01 12 -0.98 12 -2 12 C-2.33 9.03 -2.66 6.06 -3 3 C-3.99 3 -4.98 3 -6 3 C-6.33 5.97 -6.66 8.94 -7 12 C-8.32 12 -9.64 12 -11 12 C-11 8.04 -11 4.08 -11 0 C-6.99756684 -0.83771857 -3.95651739 -1.13043354 0 0 Z " fill="#1566D1" transform="translate(109,40)"/>
<path d="M0 0 C0.78375 0.165 1.5675 0.33 2.375 0.5 C4.88208039 1.0623707 4.88208039 1.0623707 7 1 C7.33 0.67 7.66 0.34 8 0 C9.66617115 -0.04063832 11.33388095 -0.042721 13 0 C12.46375 0.7425 11.9275 1.485 11.375 2.25 C10.92125 3.1575 10.4675 4.065 10 5 C10.66666667 7.16666667 10.66666667 7.16666667 12 9 C12.33 9.99 12.66 10.98 13 12 C12.236875 11.835 11.47375 11.67 10.6875 11.5 C6.84239516 10.78463166 3.78199007 11.18227242 0 12 C0.33 11.4225 0.66 10.845 1 10.25 C2.27075898 7.80116138 2.27075898 7.80116138 2 4 C1.06716704 1.79932579 1.06716704 1.79932579 0 0 Z " fill="#55B6FF" transform="translate(158,40)"/>
<path d="M0 0 C0 0.99 0 1.98 0 3 C-1.98 3 -3.96 3 -6 3 C-6.33 4.98 -6.66 6.96 -7 9 C-5.02 9 -3.04 9 -1 9 C-1 9.99 -1 10.98 -1 12 C-7.0546875 12.1953125 -7.0546875 12.1953125 -9 12 C-11 10 -11 10 -11.375 6.0625 C-11.28635216 3.19448154 -11.21085143 2.27832389 -9.4375 -0.0625 C-6.03984559 -1.36929016 -3.50452474 -0.74134177 0 0 Z " fill="#1163D0" transform="translate(40,40)"/>
<path d="M0 0 C0.99 0 1.98 0 3 0 C3.33 1.98 3.66 3.96 4 6 C5.32 6 6.64 6 8 6 C8 6.66 8 7.32 8 8 C6.02 8.99 6.02 8.99 4 10 C4.65585189 13.60992379 4.65585189 13.60992379 6 17 C4.02 17.33 2.04 17.66 0 18 C0 12.06 0 6.12 0 0 Z " fill="#075ECF" transform="translate(57,34)"/>
<path d="M0 0 C2.97 0 5.94 0 9 0 C9 1.32 9 2.64 9 4 C7.68 4.33 6.36 4.66 5 5 C4.67 7.64 4.34 10.28 4 13 C2.68 13 1.36 13 0 13 C0 8.71 0 4.42 0 0 Z " fill="#0C61D0" transform="translate(87,39)"/>
<path d="M0 0 C3.3 0 6.6 0 10 0 C10 0.66 10 1.32 10 2 C8.35 2.66 6.7 3.32 5 4 C4.67 6.97 4.34 9.94 4 13 C2.68 13 1.36 13 0 13 C0 8.71 0 4.42 0 0 Z " fill="#3E80D9" transform="translate(128,39)"/>
<path d="M0 0 C2.5 0.375 2.5 0.375 4.3125 1.625 C5.5 3.375 5.5 3.375 5.5 7.375 C4.51 7.375 3.52 7.375 2.5 7.375 C2.17 6.385 1.84 5.395 1.5 4.375 C0.51 4.375 -0.48 4.375 -1.5 4.375 C-2.16 5.035 -2.82 5.695 -3.5 6.375 C-4.16 5.385 -4.82 4.395 -5.5 3.375 C-3.72510401 1.13302612 -2.87824511 0.43173677 0 0 Z " fill="#1867D1" transform="translate(78.5,38.625)"/>
<path d="M0 0 C0 3.63 0 7.26 0 11 C-0.99 11 -1.98 11 -3 11 C-3.07347656 10.06027344 -3.07347656 10.06027344 -3.1484375 9.1015625 C-3.22320312 8.28429688 -3.29796875 7.46703125 -3.375 6.625 C-3.44460937 5.81289063 -3.51421875 5.00078125 -3.5859375 4.1640625 C-3.82892588 1.79665809 -3.82892588 1.79665809 -6 0 C-4 -1 -4 -1 0 0 Z " fill="#0159CD" transform="translate(110,41)"/>
<path d="M0 0 C2.00720923 0.28674418 4.0085944 0.61866701 6 1 C5.8125 2.875 5.8125 2.875 5 5 C2.4375 6.25 2.4375 6.25 0 7 C-0.66 6.34 -1.32 5.68 -2 5 C-1.46428571 1.46428571 -1.46428571 1.46428571 0 0 Z " fill="#5691DE" transform="translate(115,45)"/>
<path d="M0 0 C0 0.99 0 1.98 0 3 C-1.98 3 -3.96 3 -6 3 C-6.33 4.65 -6.66 6.3 -7 8 C-7.66 6.68 -8.32 5.36 -9 4 C-9.66 4 -10.32 4 -11 4 C-8.36255031 -1.84006718 -6.04918208 -1.00819701 0 0 Z " fill="#2570D4" transform="translate(40,40)"/>
<path d="M0 0 C2.125 0.375 2.125 0.375 4 1 C4 2.65 4 4.3 4 6 C2.35 6.33 0.7 6.66 -1 7 C-1.625 4.625 -1.625 4.625 -2 2 C-1.34 1.34 -0.68 0.68 0 0 Z " fill="#E5EDF9" transform="translate(62,42)"/>
<path d="M0 0 C0.99 0 1.98 0 3 0 C3 3.96 3 7.92 3 12 C2.01 12 1.02 12 0 12 C0 8.04 0 4.08 0 0 Z " fill="#0055CC" transform="translate(152,40)"/>
<path d="M0 0 C0.66 0 1.32 0 2 0 C2.33 0.66 2.66 1.32 3 2 C5.3140622 2.73075648 7.64828869 3.40138258 10 4 C9.67 4.66 9.34 5.32 9 6 C7.72125 6.061875 6.4425 6.12375 5.125 6.1875 C4.40570313 6.22230469 3.68640625 6.25710937 2.9453125 6.29296875 C2.30335937 6.19628906 1.66140625 6.09960938 1 6 C0.34 5.01 -0.32 4.02 -1 3 C-0.67 2.01 -0.34 1.02 0 0 Z " fill="#1867D1" transform="translate(74,46)"/>
<path d="M0 0 C0.99 0 1.98 0 3 0 C2.7834375 1.423125 2.7834375 1.423125 2.5625 2.875 C1.88802722 7.56740347 1.44623104 12.28134412 1 17 C1.66 17.33 2.32 17.66 3 18 C2.01 18 1.02 18 0 18 C0 12.06 0 6.12 0 0 Z " fill="#0054CC" transform="translate(57,34)"/>
<path d="M0 0 C0.99 0.495 0.99 0.495 2 1 C1.67 1.66 1.34 2.32 1 3 C1.66 3 2.32 3 3 3 C3 5.97 3 8.94 3 12 C2.01 12 1.02 12 0 12 C0 8.04 0 4.08 0 0 Z " fill="#0057CD" transform="translate(129,40)"/>
<path d="M0 0 C0.99 0 1.98 0 3 0 C3 2.97 3 5.94 3 9 C2.01 9 1.02 9 0 9 C0 6.03 0 3.06 0 0 Z " fill="#0058CD" transform="translate(137,43)"/>
<path d="M0 0 C2.97 0 5.94 0 9 0 C9 1.32 9 2.64 9 4 C7.35 4.33 5.7 4.66 4 5 C3.896875 4.360625 3.79375 3.72125 3.6875 3.0625 C3.460625 2.381875 3.23375 1.70125 3 1 C2.01 0.67 1.02 0.34 0 0 Z " fill="#3D7ED8" transform="translate(87,39)"/>
<path d="M0 0 C0.99 0 1.98 0 3 0 C2.67 1.65 2.34 3.3 2 5 C0.68 5.33 -0.64 5.66 -2 6 C-1.49396008 3.83125748 -1.00016187 2.00032373 0 0 Z " fill="#0F61D0" transform="translate(46,51)"/>
<path d="M0 0 C1.65 0 3.3 0 5 0 C5 1.32 5 2.64 5 4 C3.35 4 1.7 4 0 4 C0 2.68 0 1.36 0 0 Z " fill="#4B86DB" transform="translate(151,33)"/>
<path d="M0 0 C2.9375 0.375 2.9375 0.375 6 1 C6.33 1.66 6.66 2.32 7 3 C6.0625 5.625 6.0625 5.625 5 8 C3.5393715 5.35261084 3 4.10551666 3 1 C2.01 0.67 1.02 0.34 0 0 Z " fill="#206DD3" transform="translate(62,39)"/>
</svg>
