<?xml version="1.0" encoding="UTF-8"?>
<svg version="1.1" xmlns="http://www.w3.org/2000/svg" width="200" height="90">
<path d="M0 0 C66 0 132 0 200 0 C200 29.7 200 59.4 200 90 C134 90 68 90 0 90 C0 60.3 0 30.6 0 0 Z " fill="#5933EB" transform="translate(0,0)"/>
<path d="M0 0 C0 0.66 0 1.32 0 2 C-0.66 2 -1.32 2 -2 2 C-2.33 2.99 -2.66 3.98 -3 5 C-4.98 5 -6.96 5 -9 5 C-9.33 3.35 -9.66 1.7 -10 0 C-12.31386295 0.28064918 -14.62609008 0.57481689 -16.9375 0.875 C-18.86916016 1.11863281 -18.86916016 1.11863281 -20.83984375 1.3671875 C-21.88269531 1.57601563 -22.92554687 1.78484375 -24 2 C-25.14601494 4.29202988 -25.13237239 5.5945669 -25.14526367 8.14257812 C-25.15164352 8.99686401 -25.15802338 9.8511499 -25.16459656 10.73132324 C-25.16570938 11.65529907 -25.1668222 12.5792749 -25.16796875 13.53125 C-25.17129715 14.47810669 -25.17462555 15.42496338 -25.17805481 16.4005127 C-25.18312246 18.40453606 -25.18546319 20.40856789 -25.18530273 22.41259766 C-25.18749106 25.48744503 -25.20565354 28.56193481 -25.22460938 31.63671875 C-25.22754289 33.58072793 -25.22952797 35.52473883 -25.23046875 37.46875 C-25.23765427 38.39272583 -25.24483978 39.31670166 -25.25224304 40.26867676 C-25.24916641 41.12296265 -25.24608978 41.97724854 -25.24291992 42.85742188 C-25.24505745 43.987547 -25.24505745 43.987547 -25.24723816 45.14050293 C-25.15894137 47.24621977 -25.15894137 47.24621977 -23 49 C-22.58935547 50.97119141 -22.58935547 50.97119141 -22.3671875 53.3515625 C-22.28339844 54.20234375 -22.19960937 55.053125 -22.11328125 55.9296875 C-21.99533203 57.26386719 -21.99533203 57.26386719 -21.875 58.625 C-21.78863281 59.5221875 -21.70226562 60.419375 -21.61328125 61.34375 C-21.40091911 63.56175458 -21.19943139 65.78079539 -21 68 C-25.29 68 -29.58 68 -34 68 C-33.88501733 65.79112243 -33.75756495 63.58289213 -33.625 61.375 C-33.55539063 60.14523438 -33.48578125 58.91546875 -33.4140625 57.6484375 C-32.48792271 49.48792271 -32.48792271 49.48792271 -30 47 C-29.9071274 45.58774954 -29.88253228 44.17091066 -29.88647461 42.75561523 C-29.88655014 41.85475693 -29.88662567 40.95389862 -29.88670349 40.02574158 C-29.89186478 39.04658279 -29.89702606 38.06742401 -29.90234375 37.05859375 C-29.90446617 35.56248314 -29.90446617 35.56248314 -29.90663147 34.03614807 C-29.91224886 30.83656876 -29.92480429 27.63705831 -29.9375 24.4375 C-29.94251276 22.27408955 -29.94707605 20.11067801 -29.95117188 17.94726562 C-29.96222393 12.63148675 -29.97897896 7.31574829 -30 2 C-21.83211251 -1.58728416 -8.04110386 -5.36073591 0 0 Z " fill="#F5EFE8" transform="translate(123,13)"/>
<path d="M0 0 C0 0.66 0 1.32 0 2 C-0.66 2 -1.32 2 -2 2 C-2.33 2.99 -2.66 3.98 -3 5 C-4.98 5 -6.96 5 -9 5 C-9.33 3.35 -9.66 1.7 -10 0 C-12.29295236 0.28138058 -14.58435456 0.5754186 -16.875 0.875 C-18.78925781 1.11863281 -18.78925781 1.11863281 -20.7421875 1.3671875 C-24.07164227 1.69877473 -24.07164227 1.69877473 -26 4 C-26.33 3.01 -26.66 2.02 -27 1 C-20.18567969 -2.827221 -6.60185128 -4.40123418 0 0 Z " fill="#FBF9EF" transform="translate(123,13)"/>
<path d="M0 0 C0 0.33 0 0.66 0 1 C-0.62567871 1.08040527 -1.25135742 1.16081055 -1.89599609 1.24365234 C-4.72355296 1.61200718 -7.54921035 1.9933349 -10.375 2.375 C-11.85226563 2.56449219 -11.85226563 2.56449219 -13.359375 2.7578125 C-14.30039063 2.88671875 -15.24140625 3.015625 -16.2109375 3.1484375 C-17.51490479 3.32125244 -17.51490479 3.32125244 -18.84521484 3.49755859 C-21.19833324 3.84629199 -21.19833324 3.84629199 -23 6 C-23.33 5.01 -23.66 4.02 -24 3 C-16.89293126 -0.99164135 -7.9303435 -0.15185764 0 0 Z " fill="#D1BABB" transform="translate(120,11)"/>
<path d="M0 0 C0.66 0.33 1.32 0.66 2 1 C2 2.98 2 4.96 2 7 C1.01 7 0.02 7 -1 7 C-1.04254356 5.00045254 -1.04080783 2.99958364 -1 1 C-0.67 0.67 -0.34 0.34 0 0 Z " fill="#F4EDE6" transform="translate(95,52)"/>
<path d="M0 0 C-0.33 0.99 -0.66 1.98 -1 3 C-2.98 3 -4.96 3 -7 3 C-7.33 2.34 -7.66 1.68 -8 1 C-5.10765685 0.17361624 -3.11257569 0 0 0 Z " fill="#D6BEBA" transform="translate(121,15)"/>
</svg>
