<?xml version="1.0" encoding="UTF-8"?>
<svg version="1.1" xmlns="http://www.w3.org/2000/svg" width="200" height="90">
<path d="M0 0 C66 0 132 0 200 0 C200 29.7 200 59.4 200 90 C134 90 68 90 0 90 C0 60.3 0 30.6 0 0 Z " fill="#FCFDFD" transform="translate(0,0)"/>
<path d="M0 0 C4.71465968 2.5777306 9.01853049 5.90997225 10.921875 11.05078125 C11.76356421 18.00281043 12.1935601 25.08879468 8.421875 31.23828125 C4.49371986 36.09124681 0.4476957 38.65958789 -5.7890625 39.3515625 C-12.34246869 39.52213061 -18.10881132 38.91523402 -23.765625 35.36328125 C-29.16465279 29.96425346 -30.37835304 26.21143459 -30.703125 18.61328125 C-30.53886498 12.6764549 -29.84504238 8.96442072 -25.80078125 4.56640625 C-18.06521544 -2.23948839 -9.65341117 -4.07373951 0 0 Z " fill="#246682" transform="translate(68.078125,14.94921875)"/>
<path d="M0 0 C2.93423195 1.79646854 4.47205355 2.9441071 6 6 C6.53118252 10.91996928 6.75105553 14.77327597 4.125 19.0625 C0.90086705 22.00215063 -0.85477254 22.11724651 -5.125 22.0625 C-6.73375 22.041875 -8.3425 22.02125 -10 22 C-10 25.63 -10 29.26 -10 33 C-12.31 33 -14.62 33 -17 33 C-17.14570522 28.79203314 -17.23421087 24.58471834 -17.3125 20.375 C-17.35439453 19.18519531 -17.39628906 17.99539062 -17.43945312 16.76953125 C-17.57759344 6.87868487 -17.57759344 6.87868487 -14.60546875 3.2265625 C-10.01990407 -0.69213596 -5.87997441 -0.69339321 0 0 Z " fill="#206480" transform="translate(99,32)"/>
<path d="M0 0 C3.52586191 2.04525086 7.14473826 4.28947652 9 8 C9.57031437 12.67470792 9.43841751 16.12316498 7.3125 20.375 C3.92666702 24.21837798 1.68570325 25.78545595 -3.4375 26.4375 C-8.61887516 25.80119077 -11.51315254 23.73465537 -14.875 19.8125 C-16.48123136 15.79692159 -16.80996194 12.25979982 -16 8 C-14.32041513 4.85411087 -12.00152647 2.73445275 -9.125 0.625 C-5.78005035 -0.35880872 -3.48986254 -0.46531501 0 0 Z " fill="#F6F9FA" transform="translate(62,21)"/>
<path d="M0 0 C5.58890615 0.08608505 5.58890615 0.08608505 8.015625 1.60546875 C12.10497206 6.8465623 15.25 15.89427335 15.25 22.5 C12.94 22.5 10.63 22.5 8.25 22.5 C8.25 21.84 8.25 21.18 8.25 20.5 C7.70214844 20.8196875 7.15429688 21.139375 6.58984375 21.46875 C2.28219731 23.36727865 -2.1550647 23.24769657 -6.75 22.5 C-10.39451102 19.78448198 -11.38450089 18.42578103 -12.21484375 14.05078125 C-12.50293946 9.34990243 -12.31040335 7.20409652 -9.3125 3.4375 C-8.466875 2.798125 -7.62125 2.15875 -6.75 1.5 C-4.94903551 -0.30096449 -2.43912123 0.11898152 0 0 Z " fill="#306E88" transform="translate(120.75,31.5)"/>
<path d="M0 0 C2.64 0 5.28 0 8 0 C8.66 1.32 9.32 2.64 10 4 C10.66 4 11.32 4 12 4 C12.66 2.68 13.32 1.36 14 0 C16.64 0 19.28 0 22 0 C20.89605517 2.29280849 19.76603483 4.33794968 18.3125 6.4375 C16.80243987 8.88201109 16.80243987 8.88201109 17.0625 11.4375 C18.23848781 14.65186667 20.09279674 17.16995645 22 20 C22 20.99 22 21.98 22 23 C19.03 23 16.06 23 13 23 C12.67 21.02 12.34 19.04 12 17 C11.34 17 10.68 17 10 17 C9.34 18.98 8.68 20.96 8 23 C5.03 23 2.06 23 -1 23 C0.08967653 19.91258316 1.24052374 17.67013887 3.1875 15 C5.22085147 12.21862252 5.22085147 12.21862252 5 9.4375 C3.7915083 6.49180147 2.03581402 4.42984254 0 2 C0 1.34 0 0.68 0 0 Z " fill="#256782" transform="translate(138,32)"/>
<path d="M0 0 C0.66 0 1.32 0 2 0 C2 0.66 2 1.32 2 2 C2.99 2 3.98 2 5 2 C5 4.64 5 7.28 5 10 C6.48484412 9.60404157 7.9628831 9.18249294 9.4375 8.75 C10.26121094 8.51796875 11.08492187 8.2859375 11.93359375 8.046875 C14.19995468 7.19229321 14.19995468 7.19229321 14.78515625 4.890625 C14.85605469 4.26671875 14.92695312 3.6428125 15 3 C16.4540625 2.814375 16.4540625 2.814375 17.9375 2.625 C18.948125 2.41875 19.95875 2.2125 21 2 C21.33 1.34 21.66 0.68 22 0 C22.6700834 2.12392506 23.33596797 4.24917524 24 6.375 C24.37125 7.55835938 24.7425 8.74171875 25.125 9.9609375 C26 13 26 13 26 15 C23.69 15 21.38 15 19 15 C19 14.34 19 13.68 19 13 C18.18015625 13.48339844 18.18015625 13.48339844 17.34375 13.9765625 C13.06053594 15.84689931 8.57723894 15.52093008 4 15 C1.3125 13.6875 1.3125 13.6875 0 11 C-0.30282769 7.30762732 -0.22933145 3.69478447 0 0 Z " fill="#1F6480" transform="translate(110,39)"/>
<path d="M0 0 C0.886875 -0.02578125 1.77375 -0.0515625 2.6875 -0.078125 C3.450625 0.03015625 4.21375 0.1384375 5 0.25 C5.66 1.24 6.32 2.23 7 3.25 C5.35 3.25 3.7 3.25 2 3.25 C1.78235346 5.3963673 1.78235346 5.3963673 3.5625 7.0625 C5 9.25 5 9.25 4.8125 11.875 C4 14.25 4 14.25 2 16.25 C-0.5 16.5625 -0.5 16.5625 -3 16.25 C-4.9451 13.33235 -5.45276317 11.62462715 -6 8.25 C-7.65 8.58 -9.3 8.91 -11 9.25 C-11 17.17 -11 25.09 -11 33.25 C-11.33 33.25 -11.66 33.25 -12 33.25 C-12.14570522 29.04203314 -12.23421087 24.83471834 -12.3125 20.625 C-12.35439453 19.43519531 -12.39628906 18.24539062 -12.43945312 17.01953125 C-12.57759344 7.12868487 -12.57759344 7.12868487 -9.60546875 3.4765625 C-6.13999371 0.51506209 -4.47170902 0.07799492 0 0 Z " fill="#37728B" transform="translate(94,31.75)"/>
<path d="M0 0 C1.32 0 2.64 0 4 0 C4.99 1.98 5.98 3.96 7 6 C7.99 4.35 8.98 2.7 10 1 C11.66666667 2.66666667 13.33333333 4.33333333 15 6 C15.66 4.02 16.32 2.04 17 0 C18.32 0 19.64 0 21 0 C20.19429304 3.49422385 19.08208283 6.85317353 17.9375 10.25 C17.57527344 11.32765625 17.21304688 12.4053125 16.83984375 13.515625 C16.56269531 14.33546875 16.28554687 15.1553125 16 16 C15.34 16 14.68 16 14 16 C13.01 13.69 12.02 11.38 11 9 C10.3503125 9.8971875 10.3503125 9.8971875 9.6875 10.8125 C8.22273699 12.71126687 6.70952818 14.32878057 5 16 C4.1605118 13.89828133 3.32860344 11.79353375 2.5 9.6875 C2.0359375 8.51574219 1.571875 7.34398438 1.09375 6.13671875 C0 3 0 3 0 0 Z " fill="#357087" transform="translate(114,60)"/>
<path d="M0 0 C1.32 0 2.64 0 4 0 C4 1.98 4 3.96 4 6 C4.94875 6.12375 5.8975 6.2475 6.875 6.375 C10 7 10 7 12 9 C12.36023622 11.80984248 12.38332602 13.38241919 10.875 15.8125 C8.12844028 17.55198782 6.18153026 17.39769128 3 17 C1.32421875 15.92578125 1.32421875 15.92578125 0 14 C-0.29296875 10.64453125 -0.29296875 10.64453125 -0.1875 6.8125 C-0.16042969 5.54019531 -0.13335937 4.26789062 -0.10546875 2.95703125 C-0.07066406 1.98121094 -0.03585938 1.00539062 0 0 Z " fill="#326D85" transform="translate(148,59)"/>
<path d="M0 0 C2.11044382 3.16566573 2.75552077 5.51197415 3.625 9.1875 C3.88539063 10.27417969 4.14578125 11.36085938 4.4140625 12.48046875 C4.60742188 13.31191406 4.80078125 14.14335938 5 15 C2.69 15 0.38 15 -2 15 C-2 14.34 -2 13.68 -2 13 C-3.98 13.33 -5.96 13.66 -8 14 C-7.01 13.67 -6.02 13.34 -5 13 C-3.83046584 10.57616923 -3.83046584 10.57616923 -3 8 C-2.67 7.34 -2.34 6.68 -2 6 C-2.99 6 -3.98 6 -5 6 C-5.33 6.99 -5.66 7.98 -6 9 C-6.99 8.67 -7.98 8.34 -9 8 C-8.34 7.67 -7.68 7.34 -7 7 C-6.34786708 4.97536745 -6.34786708 4.97536745 -6 3 C-4.02 2.67 -2.04 2.34 0 2 C0 1.34 0 0.68 0 0 Z " fill="#296883" transform="translate(131,39)"/>
<path d="M0 0 C2 2 2 2 2 6 C1.01 6.33 0.02 6.66 -1 7 C-1 7.99 -1 8.98 -1 10 C-6.42857143 10.36190476 -6.42857143 10.36190476 -8.875 8.8125 C-10.42229478 6.31963619 -10.50405716 4.88032665 -10 2 C-6.89011997 -1.58832311 -4.37100102 -1.2352829 0 0 Z " fill="#26647F" transform="translate(145,66)"/>
<path d="M0 0 C3.29714793 0.32971479 4.6226839 0.6226839 7 3 C6.67028521 6.29714793 6.3773161 7.6226839 4 10 C1.5 10.3125 1.5 10.3125 -1 10 C-3 7 -3 7 -2.75 4.4375 C-2 2 -2 2 0 0 Z " fill="#E7F0F4" transform="translate(92,38)"/>
<path d="M0 0 C1.9375 0.75 1.9375 0.75 3.9375 2.75 C4.25 5.25 4.25 5.25 3.9375 7.75 C0.9375 9.75 0.9375 9.75 -1.6875 9.4375 C-4.0625 8.75 -4.0625 8.75 -5.0625 7.75 C-5.3125 4.8125 -5.3125 4.8125 -5.0625 1.75 C-2.0625 -0.25 -2.0625 -0.25 0 0 Z " fill="#ECF5F6" transform="translate(121.0625,38.25)"/>
<path d="M0 0 C1.32 0 2.64 0 4 0 C4 1.98 4 3.96 4 6 C4.94875 6.12375 5.8975 6.2475 6.875 6.375 C10 7 10 7 12 9 C12.125 11.625 12.125 11.625 12 14 C11.34 13.01 10.68 12.02 10 11 C9.01 12.485 9.01 12.485 8 14 C6.68 13.67 5.36 13.34 4 13 C4.375 11.0625 4.375 11.0625 5 9 C5.66 8.67 6.32 8.34 7 8 C5.68 7.67 4.36 7.34 3 7 C3 5.02 3 3.04 3 1 C2.34 1 1.68 1 1 1 C1 5.29 1 9.58 1 14 C0.67 14 0.34 14 0 14 C0 9.38 0 4.76 0 0 Z " fill="#648F9F" transform="translate(148,59)"/>
<path d="M0 0 C0.66 0 1.32 0 2 0 C6 5.29411765 6 5.29411765 6 9 C3.03 9 0.06 9 -3 9 C-2.25 2.25 -2.25 2.25 0 0 Z " fill="#35718A" transform="translate(154,46)"/>
<path d="M0 0 C2.88437779 1.29299694 4.87219421 2.65941363 7 5 C6.01 5.495 6.01 5.495 5 6 C5 6.928125 5 7.85625 5 8.8125 C5 10.875 5 12.9375 5 15 C4.34 15 3.68 15 3 15 C3 12.36 3 9.72 3 7 C2.01 7 1.02 7 0 7 C0 6.34 0 5.68 0 5 C-0.66 5 -1.32 5 -2 5 C-2 7.97 -2 10.94 -2 14 C-2.33 14 -2.66 14 -3 14 C-3.08153933 12.41753293 -3.13943557 10.83383727 -3.1875 9.25 C-3.22230469 8.36828125 -3.25710937 7.4865625 -3.29296875 6.578125 C-2.94923684 3.55328417 -1.99772541 2.24416398 0 0 Z " fill="#357089" transform="translate(112,34)"/>
<path d="M0 0 C1.32 0.99 2.64 1.98 4 3 C3.67 3.99 3.34 4.98 3 6 C0.03 6 -2.94 6 -6 6 C-5.34 4.35 -4.68 2.7 -4 1 C-3.01 1 -2.02 1 -1 1 C-0.67 0.67 -0.34 0.34 0 0 Z " fill="#3C758D" transform="translate(143,49)"/>
<path d="M0 0 C0.66 0 1.32 0 2 0 C2 1.98 2 3.96 2 6 C4.97 6.495 4.97 6.495 8 7 C8 7.33 8 7.66 8 8 C5.69 8 3.38 8 1 8 C1.33 8.99 1.66 9.98 2 11 C1.01 11.495 1.01 11.495 0 12 C0 8.04 0 4.08 0 0 Z " fill="#175D7A" transform="translate(149,60)"/>
<path d="M0 0 C1.32 0 2.64 0 4 0 C3.11223998 3.69900008 2.05418136 7.34550461 1 11 C0.67 11 0.34 11 0 11 C-0.19491452 9.54263913 -0.38069358 8.08405407 -0.5625 6.625 C-0.66691406 5.81289062 -0.77132812 5.00078125 -0.87890625 4.1640625 C-1 2 -1 2 0 0 Z " fill="#41778B" transform="translate(131,60)"/>
<path d="M0 0 C2.31 0 4.62 0 7 0 C6.67 1.32 6.34 2.64 6 4 C6.99 4.33 7.98 4.66 9 5 C5.625 4.75 5.625 4.75 2 4 C0.5625 1.9375 0.5625 1.9375 0 0 Z " fill="#1D627C" transform="translate(114,33)"/>
<path d="M0 0 C2.97 0.495 2.97 0.495 6 1 C5.319375 1.61875 5.319375 1.61875 4.625 2.25 C2.90313178 3.92669589 2.90313178 3.92669589 2 6.125 C1 8 1 8 -2 9 C-1.34 6.03 -0.68 3.06 0 0 Z " fill="#E3EFF3" transform="translate(133,64)"/>
<path d="M0 0 C0.33 0 0.66 0 1 0 C1.125 7.75 1.125 7.75 0 10 C-0.66 10 -1.32 10 -2 10 C-2.33 7.69 -2.66 5.38 -3 3 C-2.01 3 -1.02 3 0 3 C0 2.01 0 1.02 0 0 Z " fill="#2F6B84" transform="translate(130,66)"/>
<path d="M0 0 C1.32 0.66 2.64 1.32 4 2 C4 3.32 4 4.64 4 6 C1.36 6.33 -1.28 6.66 -4 7 C-4 6.34 -4 5.68 -4 5 C-1.69 5 0.62 5 3 5 C3 4.34 3 3.68 3 3 C1.02 3.33 -0.96 3.66 -3 4 C-3 3.34 -3 2.68 -3 2 C-2.01 2 -1.02 2 0 2 C0 1.34 0 0.68 0 0 Z " fill="#5A8CA0" transform="translate(143,66)"/>
<path d="M0 0 C0 0.99 0 1.98 0 3 C-0.99 3 -1.98 3 -3 3 C-3.33 3.66 -3.66 4.32 -4 5 C-4.66 4.67 -5.32 4.34 -6 4 C-6.66 5.32 -7.32 6.64 -8 8 C-8.25 5.6875 -8.25 5.6875 -8 3 C-5.18144066 0.08077783 -4.20010777 0 0 0 Z " fill="#40778C" transform="translate(143,65)"/>
<path d="M0 0 C2.31 0 4.62 0 7 0 C6.34 2.31 5.68 4.62 5 7 C2.65941363 4.87219421 1.29299694 2.88437779 0 0 Z " fill="#E5EFF3" transform="translate(124,60)"/>
<path d="M0 0 C1.32 0 2.64 0 4 0 C4.33 1.65 4.66 3.3 5 5 C4.34 5 3.68 5 3 5 C2.67 5.99 2.34 6.98 2 8 C0.74335022 5.09399739 0 3.20395416 0 0 Z " fill="#40798D" transform="translate(114,60)"/>
<path d="M0 0 C1.32 0.66 2.64 1.32 4 2 C3.01 3.32 2.02 4.64 1 6 C-1.475 5.01 -1.475 5.01 -4 4 C-2.68 2.68 -1.36 1.36 0 0 Z " fill="#2E6E88" transform="translate(48,15)"/>
<path d="M0 0 C1.5625 1.25 1.5625 1.25 3 3 C2.6875 5.1875 2.6875 5.1875 2 7 C1.01 6.34 0.02 5.68 -1 5 C-0.67 3.35 -0.34 1.7 0 0 Z " fill="#276583" transform="translate(124,61)"/>
<path d="M0 0 C0.33 0 0.66 0 1 0 C1.042721 1.66611905 1.04063832 3.33382885 1 5 C0 6 0 6 -2.5625 6.0625 C-3.7690625 6.0315625 -3.7690625 6.0315625 -5 6 C-3.35830472 3.97945196 -1.69088222 1.97956942 0 0 Z " fill="#1D5F7B" transform="translate(158,69)"/>
<path d="M0 0 C0.99 0.33 1.98 0.66 3 1 C3 2.32 3 3.64 3 5 C1.68 4.67 0.36 4.34 -1 4 C-0.67 2.68 -0.34 1.36 0 0 Z " fill="#D7E8EE" transform="translate(153,68)"/>
</svg>
