<?xml version="1.0" encoding="UTF-8"?>
<!DOCTYPE svg PUBLIC "-//W3C//DTD SVG 1.1//EN" "http://www.w3.org/Graphics/SVG/1.1/DTD/svg11.dtd">
<svg xmlns="http://www.w3.org/2000/svg" version="1.1" width="2008px" height="628px" style="shape-rendering:geometricPrecision; text-rendering:geometricPrecision; image-rendering:optimizeQuality; fillRule:evenodd; clip-rule:evenodd" xmlns:xlink="http://www.w3.org/1999/xlink">
<g><path style="opacity:1" fill="#190632" d="M -0.5,-0.5 C 668.833,-0.5 1338.17,-0.5 2007.5,-0.5C 2007.5,208.833 2007.5,418.167 2007.5,627.5C 1338.17,627.5 668.833,627.5 -0.5,627.5C -0.5,418.167 -0.5,208.833 -0.5,-0.5 Z"/></g>
<g><path style="opacity:1" fill="#337be9" d="M 477.5,22.5 C 480.611,24.5591 483.944,26.3924 487.5,28C 489.633,31.3087 492.633,33.142 496.5,33.5C 498.403,33.7959 500.07,34.4625 501.5,35.5C 501.953,36.4584 502.619,37.2917 503.5,38C 508.997,41.4154 514.664,44.2487 520.5,46.5C 521.694,47.2719 522.694,48.2719 523.5,49.5C 526.416,51.9216 529.749,53.5883 533.5,54.5C 535.913,56.8872 538.58,59.0539 541.5,61C 543.167,61.3333 544.833,61.6667 546.5,62C 549.064,64.1047 551.731,65.938 554.5,67.5C 555.689,68.4287 557.022,68.762 558.5,68.5C 559.306,69.7281 560.306,70.7281 561.5,71.5C 564.904,73.8671 568.571,75.8671 572.5,77.5C 576.032,78.6852 579.032,80.8518 581.5,84C 586.455,85.4615 590.788,87.9615 594.5,91.5C 598.394,92.7428 602.061,94.4094 605.5,96.5C 606.122,97.6266 606.955,98.6266 608,99.5C 608.714,157.165 609.214,214.832 609.5,272.5C 607.948,275.112 605.614,276.445 602.5,276.5C 599.731,277.437 597.064,278.604 594.5,280C 592.937,280.759 591.937,281.926 591.5,283.5C 585.391,286.724 579.391,290.224 573.5,294C 571.833,294.333 570.167,294.667 568.5,295C 567.349,297.2 565.682,298.7 563.5,299.5C 560.854,300.487 558.188,301.487 555.5,302.5C 554.614,303.325 554.281,304.325 554.5,305.5C 552.02,306.242 549.687,307.242 547.5,308.5C 541.872,311.989 535.872,314.989 529.5,317.5C 526.017,320.208 522.684,322.875 519.5,325.5C 516.128,327.186 512.795,328.853 509.5,330.5C 506.123,330.69 503.456,332.19 501.5,335C 500.167,335.333 498.833,335.667 497.5,336C 488.404,341.539 479.404,347.039 470.5,352.5C 469.5,352.5 468.5,352.5 467.5,352.5C 467.727,297.155 467.06,241.822 465.5,186.5C 463.183,184.684 461.016,182.684 459,180.5C 458.586,180.957 458.086,181.291 457.5,181.5C 452.5,178.333 447.5,175.167 442.5,172C 441.207,171.51 439.873,171.343 438.5,171.5C 434.631,169.404 430.964,167.07 427.5,164.5C 427.047,163.542 426.381,162.708 425.5,162C 422.936,160.604 420.269,159.437 417.5,158.5C 407.08,152.065 396.414,145.899 385.5,140C 383.937,139.241 382.937,138.074 382.5,136.5C 379.307,134.318 375.974,132.318 372.5,130.5C 371.127,130.657 369.793,130.49 368.5,130C 355.641,120.157 341.974,111.49 327.5,104C 325.812,102.312 324.145,100.645 322.5,99C 322.743,98.0979 323.077,97.2646 323.5,96.5C 327.997,95.0004 331.997,92.667 335.5,89.5C 340.17,87.1616 344.836,84.8283 349.5,82.5C 351.179,82.1077 352.846,81.6077 354.5,81C 358.424,77.564 362.424,74.3973 366.5,71.5C 371.306,69.1785 375.973,66.6785 380.5,64C 381.71,62.9609 382.71,61.7942 383.5,60.5C 384.833,60.1667 386.167,59.8333 387.5,59.5C 389.179,59.1077 390.846,58.6077 392.5,58C 397.226,55.6137 401.56,52.7804 405.5,49.5C 406.29,48.2058 407.29,47.0391 408.5,46C 410.97,45.0112 413.303,43.8446 415.5,42.5C 416.873,42.6567 418.207,42.49 419.5,42C 425.302,38.6798 430.635,34.8465 435.5,30.5C 435.5,30.1667 435.5,29.8333 435.5,29.5C 437.901,28.9512 440.235,28.1178 442.5,27C 447.723,24.1296 452.723,20.7963 457.5,17C 462.789,14.4543 467.122,15.4543 470.5,20C 473.06,20.3838 475.394,21.2171 477.5,22.5 Z"/></g>
<g><path style="opacity:1" fill="#232d6f" d="M 177.5,17.5 C 176.127,17.3433 174.793,17.51 173.5,18C 169.19,21.4879 164.524,24.3212 159.5,26.5C 162.724,23.7581 166.058,20.9248 169.5,18C 172.265,16.5236 174.932,16.3569 177.5,17.5 Z"/></g>
<g><path style="opacity:1" fill="#337be9" d="M 177.5,17.5 C 180.096,20.4758 183.43,22.4758 187.5,23.5C 190.962,26.5642 194.962,28.5642 199.5,29.5C 201.647,31.4695 203.98,33.3029 206.5,35C 221.037,42.6891 235.371,50.5224 249.5,58.5C 249.414,59.4959 249.748,60.3292 250.5,61C 260.866,66.1832 271.2,71.3498 281.5,76.5C 281.953,77.4584 282.619,78.2917 283.5,79C 287.814,81.1569 292.147,83.3236 296.5,85.5C 301.022,89.9614 306.355,92.9614 312.5,94.5C 314.03,96.3465 316.03,97.3465 318.5,97.5C 318.5,100.833 316.833,102.5 313.5,102.5C 312.448,102.351 311.448,102.517 310.5,103C 308.386,105.28 306.053,107.113 303.5,108.5C 302.341,110.25 300.674,111.25 298.5,111.5C 293.731,113.535 289.064,115.868 284.5,118.5C 282.981,119.851 281.648,121.351 280.5,123C 275.843,124.994 271.177,126.994 266.5,129C 264.627,130.704 262.96,132.537 261.5,134.5C 256.692,136.432 252.359,139.098 248.5,142.5C 246.172,144.3 243.505,145.467 240.5,146C 238.588,148.788 235.921,150.121 232.5,150C 229.334,152.084 226.334,154.25 223.5,156.5C 223.167,156.5 222.833,156.5 222.5,156.5C 221.448,156.351 220.448,156.517 219.5,157C 215.14,160.511 210.473,163.511 205.5,166C 203.937,166.759 202.937,167.926 202.5,169.5C 201.833,169.5 201.167,169.5 200.5,169.5C 196.675,170.912 193.342,173.079 190.5,176C 185.525,177.484 181.191,179.984 177.5,183.5C 176.504,183.414 175.671,183.748 175,184.5C 174.693,199.846 174.193,215.179 173.5,230.5C 172.138,270.659 171.304,310.993 171,351.5C 170.329,352.252 169.496,352.586 168.5,352.5C 163.504,350.338 158.838,347.671 154.5,344.5C 151.856,342.277 148.856,340.611 145.5,339.5C 144.167,339.167 142.833,338.833 141.5,338.5C 139.441,336.406 137.107,334.572 134.5,333C 129.681,330.976 125.014,328.809 120.5,326.5C 117.63,325.567 115.296,323.9 113.5,321.5C 112.097,320.069 110.431,318.902 108.5,318C 107.207,317.51 105.873,317.343 104.5,317.5C 104.079,315.09 102.746,313.257 100.5,312C 97.2301,310.541 93.8968,309.374 90.5,308.5C 86.4055,306.46 82.0722,304.96 77.5,304C 74.9528,301.946 72.2861,300.113 69.5,298.5C 63.9283,293.547 57.595,289.88 50.5,287.5C 48.2219,284.528 45.2219,282.861 41.5,282.5C 36.8549,278.014 31.1882,275.348 24.5,274.5C 24.5,217.833 24.5,161.167 24.5,104.5C 28.7938,104.205 32.4605,102.538 35.5,99.5C 37.8283,97.6996 40.495,96.533 43.5,96C 46.1941,93.7423 48.8607,91.5757 51.5,89.5C 54.967,89.5543 57.6337,88.0543 59.5,85C 63.2068,83.7812 66.5401,81.9478 69.5,79.5C 72.1354,78.1891 74.4687,76.5224 76.5,74.5C 85.5087,71.2358 93.842,67.0691 101.5,62C 104.779,59.7589 107.779,57.2589 110.5,54.5C 111.552,54.6495 112.552,54.4828 113.5,54C 123.086,47.5566 132.752,41.3899 142.5,35.5C 148.705,33.9926 154.038,30.9926 158.5,26.5C 158.833,26.5 159.167,26.5 159.5,26.5C 164.524,24.3212 169.19,21.4879 173.5,18C 174.793,17.51 176.127,17.3433 177.5,17.5 Z"/></g>
<g><path style="opacity:1" fill="#24347b" d="M 477.5,22.5 C 475.394,21.2171 473.06,20.3838 470.5,20C 467.122,15.4543 462.789,14.4543 457.5,17C 452.723,20.7963 447.723,24.1296 442.5,27C 440.235,28.1178 437.901,28.9512 435.5,29.5C 438.614,27.6073 441.614,25.4407 444.5,23C 447.915,22.5943 450.582,20.9277 452.5,18C 455.796,16.1043 459.296,14.6043 463,13.5C 466.796,13.9736 469.629,15.8069 471.5,19C 474.264,19.0058 476.264,20.1725 477.5,22.5 Z"/></g>
<g><path style="opacity:1" fill="#232b6c" d="M 477.5,22.5 C 480.688,22.6178 483.688,23.4511 486.5,25C 489.942,27.9248 493.276,30.7581 496.5,33.5C 492.633,33.142 489.633,31.3087 487.5,28C 483.944,26.3924 480.611,24.5591 477.5,22.5 Z"/></g>
<g><path style="opacity:1" fill="#232d6e" d="M 187.5,23.5 C 192.184,24.1963 196.184,26.1963 199.5,29.5C 194.962,28.5642 190.962,26.5642 187.5,23.5 Z"/></g>
<g><path style="opacity:1" fill="#27408d" d="M 158.5,26.5 C 154.038,30.9926 148.705,33.9926 142.5,35.5C 145.198,34.3222 147.531,32.4889 149.5,30C 152.562,28.7951 155.562,27.6284 158.5,26.5 Z"/></g>
<g><path style="opacity:1" fill="#2c55ad" d="M 435.5,30.5 C 430.635,34.8465 425.302,38.6798 419.5,42C 418.207,42.49 416.873,42.6567 415.5,42.5C 415.937,40.9256 416.937,39.7589 418.5,39C 423.034,38.8387 426.367,36.8387 428.5,33C 430.652,31.5873 432.986,30.7539 435.5,30.5 Z"/></g>
<g><path style="opacity:1" fill="#212664" d="M 501.5,35.5 C 503.179,35.8923 504.846,36.3923 506.5,37C 511.291,40.0813 515.957,43.2479 520.5,46.5C 514.664,44.2487 508.997,41.4154 503.5,38C 502.619,37.2917 501.953,36.4584 501.5,35.5 Z"/></g>
<g><path style="opacity:1" fill="#24377e" d="M 523.5,49.5 C 527.684,49.5919 531.017,51.2586 533.5,54.5C 529.749,53.5883 526.416,51.9216 523.5,49.5 Z"/></g>
<g><path style="opacity:1" fill="#2c57b1" d="M 405.5,49.5 C 401.56,52.7804 397.226,55.6137 392.5,58C 390.846,58.6077 389.179,59.1077 387.5,59.5C 389.971,58.2641 391.971,56.4308 393.5,54C 397.625,52.6753 401.625,51.1753 405.5,49.5 Z"/></g>
<g><path style="opacity:1" fill="#24357c" d="M 110.5,54.5 C 107.779,57.2589 104.779,59.7589 101.5,62C 93.842,67.0691 85.5087,71.2358 76.5,74.5C 81.2869,71.5992 85.9536,68.4325 90.5,65C 93.8333,63.6667 97.1667,62.3333 100.5,61C 103.58,58.3724 106.913,56.2058 110.5,54.5 Z"/></g>
<g><path style="opacity:1" fill="#212867" d="M 533.5,54.5 C 538.034,56.8448 542.7,59.0115 547.5,61C 551.546,63.0167 555.212,65.5167 558.5,68.5C 557.022,68.762 555.689,68.4287 554.5,67.5C 551.731,65.938 549.064,64.1047 546.5,62C 544.833,61.6667 543.167,61.3333 541.5,61C 538.58,59.0539 535.913,56.8872 533.5,54.5 Z"/></g>
<g><path style="opacity:1" fill="#233175" d="M 383.5,60.5 C 382.71,61.7942 381.71,62.9609 380.5,64C 375.973,66.6785 371.306,69.1785 366.5,71.5C 369.132,69.0761 371.966,66.7428 375,64.5C 378.198,63.7682 381.031,62.4349 383.5,60.5 Z"/></g>
<g><path style="opacity:1" fill="#24347b" d="M 249.5,58.5 C 257.18,62.2317 264.847,66.0651 272.5,70C 275.666,72.0838 278.666,74.2504 281.5,76.5C 271.2,71.3498 260.866,66.1832 250.5,61C 249.748,60.3292 249.414,59.4959 249.5,58.5 Z"/></g>
<g><path style="opacity:1" fill="#232e71" d="M 561.5,71.5 C 566.176,71.8826 569.843,73.8826 572.5,77.5C 568.571,75.8671 564.904,73.8671 561.5,71.5 Z"/></g>
<g><path style="opacity:1" fill="#dcdcdc" d="M 1317.5,74.5 C 1323.43,74.4262 1326.43,77.4262 1326.5,83.5C 1325,88.4914 1322.84,93.1581 1320,97.5C 1319.33,155.167 1319.33,212.833 1320,270.5C 1320.07,273.276 1321.23,275.442 1323.5,277C 1327.95,278.312 1332.12,280.146 1336,282.5C 1338.11,287.441 1337.94,292.275 1335.5,297C 1333.63,297.985 1331.63,298.485 1329.5,298.5C 1319.97,296.267 1310.3,294.933 1300.5,294.5C 1292.7,294.801 1285.03,295.967 1277.5,298C 1264.65,300.286 1260.49,295.119 1265,282.5C 1268.79,279.899 1272.96,278.066 1277.5,277C 1279.97,274.772 1281.13,271.938 1281,268.5C 1281.67,217.5 1281.67,166.5 1281,115.5C 1280.1,114.299 1278.93,113.465 1277.5,113C 1273.42,112.524 1269.59,111.358 1266,109.5C 1265.33,105.5 1265.33,101.5 1266,97.5C 1267.41,96.2125 1268.91,95.0458 1270.5,94C 1286.48,87.9996 1302.15,81.4996 1317.5,74.5 Z"/></g>
<g><path style="opacity:1" fill="#2b52a9" d="M 366.5,71.5 C 362.424,74.3973 358.424,77.564 354.5,81C 352.846,81.6077 351.179,82.1077 349.5,82.5C 351.751,81.1825 353.751,79.5158 355.5,77.5C 358.723,74.7532 362.389,72.7532 366.5,71.5 Z"/></g>
<g><path style="opacity:1" fill="#dddddd" d="M 798.5,108.5 C 786.011,107.505 773.344,107.171 760.5,107.5C 760.168,159.336 760.501,211.003 761.5,262.5C 761.845,274.674 768.178,280.508 780.5,280C 781.931,280.465 783.097,281.299 784,282.5C 788.09,295.56 783.59,300.727 770.5,298C 760.614,295.741 750.614,294.241 740.5,293.5C 728.148,295.004 715.815,296.671 703.5,298.5C 701.5,298.333 699.5,298.167 697.5,298C 695.038,292.604 694.871,287.104 697,281.5C 702.759,279.509 708.592,277.676 714.5,276C 717.404,271.621 718.904,266.787 719,261.5C 719.5,210.168 719.667,158.834 719.5,107.5C 704.496,107.333 689.496,107.5 674.5,108C 672.413,108.792 670.579,109.959 669,111.5C 667.208,116.225 665.041,120.725 662.5,125C 657.238,126.439 651.904,126.772 646.5,126C 643.606,123.091 642.773,119.591 644,115.5C 646,105.5 648,95.5 650,85.5C 650.723,82.7799 652.223,80.6132 654.5,79C 657.833,78.3333 661.167,78.3333 664.5,79C 669.172,81.8365 674.172,83.8365 679.5,85C 723.167,85.6667 766.833,85.6667 810.5,85C 816.248,81.1262 822.581,78.9595 829.5,78.5C 834.505,77.2524 837.172,79.0857 837.5,84C 835.603,96.5484 833.436,109.048 831,121.5C 830.654,123.848 829.487,125.681 827.5,127C 822.713,127.879 818.047,127.545 813.5,126C 811.276,121.328 809.442,116.495 808,111.5C 805.454,108.814 802.287,107.814 798.5,108.5 Z"/></g>
<g><path style="opacity:1" fill="#222c6d" d="M 355.5,77.5 C 353.751,79.5158 351.751,81.1825 349.5,82.5C 344.836,84.8283 340.17,87.1616 335.5,89.5C 341.576,84.5785 348.242,80.5785 355.5,77.5 Z"/></g>
<g><path style="opacity:1" fill="#dbdbdc" d="M 1182.5,79.5 C 1204.09,79.9363 1213.26,90.9363 1210,112.5C 1202.69,128.757 1191.19,132.923 1175.5,125C 1161.85,110.6 1162.19,96.5998 1176.5,83C 1178.73,82.059 1180.73,80.8923 1182.5,79.5 Z"/></g>
<g><path style="opacity:1" fill="#dbdbdc" d="M 1407.5,79.5 C 1429.09,79.9363 1438.26,90.9363 1435,112.5C 1427.69,128.757 1416.19,132.923 1400.5,125C 1386.85,110.6 1387.19,96.5998 1401.5,83C 1403.73,82.059 1405.73,80.8923 1407.5,79.5 Z"/></g>
<g><path style="opacity:1" fill="#274391" d="M 296.5,85.5 C 300.15,87.9537 304.15,89.787 308.5,91C 309.731,92.4048 311.064,93.5714 312.5,94.5C 306.355,92.9614 301.022,89.9614 296.5,85.5 Z"/></g>
<g><path style="opacity:1" fill="#232f71" d="M 69.5,79.5 C 66.5401,81.9478 63.2068,83.7812 59.5,85C 57.6337,88.0543 54.967,89.5543 51.5,89.5C 56.8262,84.9964 62.8262,81.663 69.5,79.5 Z"/></g>
<g><path style="opacity:1" fill="#222d70" d="M 51.5,89.5 C 48.8607,91.5757 46.1941,93.7423 43.5,96C 40.495,96.533 37.8283,97.6996 35.5,99.5C 36.2899,98.2058 37.2899,97.0391 38.5,96C 42.7182,93.6181 47.0515,91.4515 51.5,89.5 Z"/></g>
<g><path style="opacity:1" fill="#190633" d="M 312.5,94.5 C 315.343,94.9423 318.009,95.9423 320.5,97.5C 321.417,96.8728 322.417,96.5394 323.5,96.5C 323.077,97.2646 322.743,98.0979 322.5,99C 324.145,100.645 325.812,102.312 327.5,104C 341.974,111.49 355.641,120.157 368.5,130C 369.793,130.49 371.127,130.657 372.5,130.5C 375.016,133.791 378.349,135.791 382.5,136.5C 382.937,138.074 383.937,139.241 385.5,140C 396.414,145.899 407.08,152.065 417.5,158.5C 417.856,159.87 418.69,160.87 420,161.5C 422.677,162.222 425.177,163.222 427.5,164.5C 430.964,167.07 434.631,169.404 438.5,171.5C 438.953,172.458 439.619,173.292 440.5,174C 448.797,178.037 456.797,182.537 464.5,187.5C 464.667,243.501 464.5,299.501 464,355.5C 463.283,356.044 462.783,356.711 462.5,357.5C 462.167,358.167 461.833,358.833 461.5,359.5C 459.62,359.229 458.287,359.896 457.5,361.5C 451.02,364.047 444.686,366.88 438.5,370C 437.619,370.708 436.953,371.542 436.5,372.5C 432.727,373.782 429.06,375.282 425.5,377C 424.619,377.708 423.953,378.542 423.5,379.5C 414.338,385.234 404.671,390.234 394.5,394.5C 388.756,396.24 383.756,399.24 379.5,403.5C 375.698,406.385 371.364,408.218 366.5,409C 362.655,411.363 358.989,413.863 355.5,416.5C 353.016,417.723 350.683,419.223 348.5,421C 347.207,421.49 345.873,421.657 344.5,421.5C 340.608,423.062 337.275,425.395 334.5,428.5C 332.181,428.992 330.181,429.992 328.5,431.5C 325.699,432.377 323.032,433.544 320.5,435C 318.115,435.556 315.782,435.39 313.5,434.5C 310.081,433.292 306.747,431.792 303.5,430C 302.743,428.488 301.743,427.154 300.5,426C 297.97,425.621 295.637,424.787 293.5,423.5C 290.939,420.283 287.605,418.283 283.5,417.5C 277.148,414.434 270.814,411.267 264.5,408C 261.546,406.354 258.88,404.354 256.5,402C 252.3,400.796 248.3,399.129 244.5,397C 238.976,392.067 232.642,388.4 225.5,386C 224.833,385 224.167,384 223.5,383C 218.517,380.843 213.517,378.843 208.5,377C 206.382,375.951 204.716,374.451 203.5,372.5C 201.526,371.094 199.526,369.594 197.5,368C 196.207,367.51 194.873,367.343 193.5,367.5C 190.899,364.223 187.565,362.223 183.5,361.5C 181.973,361.573 180.973,360.906 180.5,359.5C 178.226,358.263 175.893,356.929 173.5,355.5C 172.502,345.856 172.168,336.19 172.5,326.5C 174.205,279.677 175.372,232.677 176,185.5C 176.717,184.956 177.217,184.289 177.5,183.5C 180.524,181.69 183.858,180.523 187.5,180C 191.498,176.012 195.831,172.512 200.5,169.5C 201.167,169.5 201.833,169.5 202.5,169.5C 207.344,166.857 212.344,164.357 217.5,162C 218.762,159.724 220.429,157.891 222.5,156.5C 222.833,156.5 223.167,156.5 223.5,156.5C 228.599,154.631 233.599,152.464 238.5,150C 242.114,147.785 245.447,145.285 248.5,142.5C 252.359,139.098 256.692,136.432 261.5,134.5C 267.575,129.938 274.242,126.438 281.5,124C 285.519,119.991 290.185,116.991 295.5,115C 296.71,113.961 297.71,112.794 298.5,111.5C 300.674,111.25 302.341,110.25 303.5,108.5C 307.598,107.728 310.931,105.728 313.5,102.5C 316.833,102.5 318.5,100.833 318.5,97.5C 316.03,97.3465 314.03,96.3465 312.5,94.5 Z"/></g>
<g><path style="opacity:1" fill="#28489a" d="M 313.5,102.5 C 310.931,105.728 307.598,107.728 303.5,108.5C 306.053,107.113 308.386,105.28 310.5,103C 311.448,102.517 312.448,102.351 313.5,102.5 Z"/></g>
<g><path style="opacity:1" fill="#635d6e" d="M 798.5,108.5 C 786.167,108.5 773.833,108.5 761.5,108.5C 761.5,159.833 761.5,211.167 761.5,262.5C 760.501,211.003 760.168,159.336 760.5,107.5C 773.344,107.171 786.011,107.505 798.5,108.5 Z"/></g>
<g><path style="opacity:1" fill="#27418e" d="M 298.5,111.5 C 297.71,112.794 296.71,113.961 295.5,115C 290.185,116.991 285.519,119.991 281.5,124C 274.242,126.438 267.575,129.938 261.5,134.5C 262.96,132.537 264.627,130.704 266.5,129C 271.177,126.994 275.843,124.994 280.5,123C 281.648,121.351 282.981,119.851 284.5,118.5C 289.064,115.868 293.731,113.535 298.5,111.5 Z"/></g>
<g><path style="opacity:1" fill="#273f8b" d="M 372.5,130.5 C 375.974,132.318 379.307,134.318 382.5,136.5C 378.349,135.791 375.016,133.791 372.5,130.5 Z"/></g>
<g><path style="opacity:1" fill="#222866" d="M 248.5,142.5 C 245.447,145.285 242.114,147.785 238.5,150C 233.599,152.464 228.599,154.631 223.5,156.5C 226.334,154.25 229.334,152.084 232.5,150C 235.921,150.121 238.588,148.788 240.5,146C 243.505,145.467 246.172,144.3 248.5,142.5 Z"/></g>
<g><path style="opacity:1" fill="#dddddd" d="M 1201.5,152.5 C 1208.16,151.827 1211.16,154.827 1210.5,161.5C 1210.7,165.411 1209.87,169.078 1208,172.5C 1207.33,204.167 1207.33,235.833 1208,267.5C 1208.15,270.571 1208.98,273.404 1210.5,276C 1214.41,277.789 1218.41,279.456 1222.5,281C 1223.33,281.833 1224.17,282.667 1225,283.5C 1225.87,287.956 1225.53,292.289 1224,296.5C 1222.26,297.894 1220.26,298.561 1218,298.5C 1208.77,296.406 1199.44,295.073 1190,294.5C 1179.78,295.378 1169.61,296.711 1159.5,298.5C 1153.96,297.969 1151.62,294.802 1152.5,289C 1152.56,286.775 1152.9,284.608 1153.5,282.5C 1157.52,279.99 1161.86,278.157 1166.5,277C 1167.7,276.097 1168.53,274.931 1169,273.5C 1170.44,246.533 1170.94,219.533 1170.5,192.5C 1164.92,192.492 1159.75,191.159 1155,188.5C 1152.19,182.098 1153.35,176.598 1158.5,172C 1173.16,165.999 1187.49,159.499 1201.5,152.5 Z"/></g>
<g><path style="opacity:1" fill="#dddddd" d="M 1426.5,152.5 C 1433.16,151.827 1436.16,154.827 1435.5,161.5C 1435.7,165.411 1434.87,169.078 1433,172.5C 1432.33,204.167 1432.33,235.833 1433,267.5C 1433.15,270.571 1433.98,273.404 1435.5,276C 1439.41,277.789 1443.41,279.456 1447.5,281C 1448.33,281.833 1449.17,282.667 1450,283.5C 1450.87,287.956 1450.53,292.289 1449,296.5C 1447.26,297.894 1445.26,298.561 1443,298.5C 1433.77,296.406 1424.44,295.073 1415,294.5C 1404.78,295.378 1394.61,296.711 1384.5,298.5C 1378.96,297.969 1376.62,294.802 1377.5,289C 1377.56,286.775 1377.9,284.608 1378.5,282.5C 1382.52,279.99 1386.86,278.157 1391.5,277C 1392.7,276.097 1393.53,274.931 1394,273.5C 1395.44,246.533 1395.94,219.533 1395.5,192.5C 1389.92,192.492 1384.75,191.159 1380,188.5C 1377.19,182.098 1378.35,176.598 1383.5,172C 1398.16,165.999 1412.49,159.499 1426.5,152.5 Z"/></g>
<g><path style="opacity:1" fill="#85818d" d="M 1591.5,152.5 C 1590.5,152.5 1589.5,152.5 1588.5,152.5C 1588.83,158.93 1588.5,164.597 1587.5,169.5C 1587.5,163.5 1587.5,157.5 1587.5,151.5C 1589.1,151.232 1590.43,151.566 1591.5,152.5 Z"/></g>
<g><path style="opacity:1" fill="#dcdcdc" d="M 1591.5,152.5 C 1595.44,156.214 1600.11,158.714 1605.5,160C 1615.06,161.921 1624.73,162.921 1634.5,163C 1637.87,167.819 1638.37,172.986 1636,178.5C 1633.07,180.066 1629.9,180.9 1626.5,181C 1625.67,181.833 1624.83,182.667 1624,183.5C 1623.33,236.5 1623.33,289.5 1624,342.5C 1624.5,344.333 1625.67,345.5 1627.5,346C 1637.69,345.857 1641.53,350.69 1639,360.5C 1638.17,362 1637,363.167 1635.5,364C 1619.31,368.964 1602.98,373.464 1586.5,377.5C 1582.64,375.639 1580.64,372.473 1580.5,368C 1583.49,362.506 1585.82,356.673 1587.5,350.5C 1588.83,324.997 1588.83,299.33 1587.5,273.5C 1586.89,273.624 1586.56,273.957 1586.5,274.5C 1574.83,290.085 1559.33,298.752 1540,300.5C 1523.41,299.903 1510.74,292.57 1502,278.5C 1488.69,251.198 1488.02,223.531 1500,195.5C 1508.31,177.186 1521.81,164.353 1540.5,157C 1558.78,151.984 1574.44,156.15 1587.5,169.5C 1588.5,164.597 1588.83,158.93 1588.5,152.5C 1589.5,152.5 1590.5,152.5 1591.5,152.5 Z"/></g>
<g><path style="opacity:1" fill="#dcdcdc" d="M 941.5,155.5 C 942.919,156.451 944.585,156.784 946.5,156.5C 946.828,167.679 946.495,178.679 945.5,189.5C 935.056,189.093 924.723,189.927 914.5,192C 905.772,194.733 899.606,200.233 896,208.5C 895.333,229.167 895.333,249.833 896,270.5C 896.346,272.848 897.513,274.681 899.5,276C 904.139,277.128 908.805,278.128 913.5,279C 915.587,279.792 917.421,280.959 919,282.5C 919.667,286.833 919.667,291.167 919,295.5C 917.667,297.833 915.667,298.833 913,298.5C 890.569,292.925 868.235,293.258 846,299.5C 844.289,299.561 842.956,298.894 842,297.5C 840.455,292.953 840.121,288.287 841,283.5C 845.011,280.322 849.511,277.989 854.5,276.5C 856.831,274.383 857.997,271.716 858,268.5C 858.5,243.169 858.667,217.836 858.5,192.5C 852.241,193.023 846.741,191.357 842,187.5C 840.992,183.229 841.492,179.229 843.5,175.5C 857.88,167.866 872.546,160.699 887.5,154C 889.81,153.503 892.143,153.337 894.5,153.5C 894.333,164.505 894.5,175.505 895,186.5C 902.691,172.473 913.858,162.307 928.5,156C 932.821,155.501 937.154,155.334 941.5,155.5 Z"/></g>
<g><path style="opacity:1" fill="#dcdcdc" d="M 1725.5,154.5 C 1731.43,154.426 1734.43,157.426 1734.5,163.5C 1734.17,166.324 1733.34,168.991 1732,171.5C 1731.05,198.535 1731.39,225.535 1733,252.5C 1737.65,268.408 1747.82,273.575 1763.5,268C 1768.55,265.611 1773.05,262.445 1777,258.5C 1777.67,236.167 1777.67,213.833 1777,191.5C 1773.1,189.475 1768.93,187.975 1764.5,187C 1759.24,178.837 1761.24,172.837 1770.5,169C 1784.35,166.206 1797.68,161.873 1810.5,156C 1818.84,154.673 1822,158.173 1820,166.5C 1818,169.833 1816,173.167 1814,176.5C 1813.33,205.167 1813.33,233.833 1814,262.5C 1814.48,264.646 1815.81,265.646 1818,265.5C 1825.47,262.376 1829.97,264.71 1831.5,272.5C 1831.13,274.459 1830.46,276.293 1829.5,278C 1813.17,286.5 1796.83,295 1780.5,303.5C 1776.83,301.331 1774.5,298.164 1773.5,294C 1776.6,287.486 1777.77,280.653 1777,273.5C 1768.61,285.763 1757.45,294.263 1743.5,299C 1721.95,303.773 1707.12,295.94 1699,275.5C 1697.24,269.6 1695.91,263.6 1695,257.5C 1694.67,236.167 1694.33,214.833 1694,193.5C 1689.78,191.381 1685.28,189.881 1680.5,189C 1675.07,180.625 1677.07,174.625 1686.5,171C 1699.8,165.962 1712.8,160.462 1725.5,154.5 Z"/></g>
<g><path style="opacity:1" fill="#dcdcdc" d="M 1022.5,155.5 C 1036.21,155.115 1049.88,155.615 1063.5,157C 1082.79,161.625 1093.62,173.791 1096,193.5C 1096.06,216.536 1096.73,239.536 1098,262.5C 1100,270.673 1105.17,275.006 1113.5,275.5C 1111.92,285.13 1106.92,292.63 1098.5,298C 1087.48,301.249 1078.64,298.083 1072,288.5C 1070,285.167 1068,281.833 1066,278.5C 1051.18,297.219 1032.02,304.053 1008.5,299C 986.975,288.437 979.809,271.603 987,248.5C 993.375,236.798 1002.88,228.631 1015.5,224C 1030.41,218.272 1045.75,214.105 1061.5,211.5C 1064.39,183.555 1052.06,172.055 1024.5,177C 1020.79,182.781 1017.46,188.781 1014.5,195C 1009.83,197 1005.17,197 1000.5,195C 998.955,193.178 998.288,191.011 998.5,188.5C 1000.17,178.492 1001.84,168.492 1003.5,158.5C 1009.98,157.577 1016.31,156.577 1022.5,155.5 Z"/></g>
<g><path style="opacity:1" fill="#dbdbdb" d="M 1928.5,155.5 C 1946.16,153.044 1962.16,156.878 1976.5,167C 1989.41,178.564 1995.41,193.064 1994.5,210.5C 1966.87,216.991 1939.2,223.325 1911.5,229.5C 1911.61,243.202 1916.27,255.035 1925.5,265C 1938.97,274.682 1953.3,276.016 1968.5,269C 1975.15,264.76 1981.98,260.926 1989,257.5C 1993.49,258.815 1995.16,261.815 1994,266.5C 1988.53,275.975 1981.03,283.475 1971.5,289C 1952.2,300.159 1931.87,302.493 1910.5,296C 1892.62,288.075 1881.45,274.575 1877,255.5C 1871.23,228.968 1875.56,204.301 1890,181.5C 1899.64,167.943 1912.47,159.277 1928.5,155.5 Z"/></g>
<g><path style="opacity:1" fill="#898690" d="M 941.5,155.5 C 943.5,155.5 945.5,155.5 947.5,155.5C 947.832,167.186 947.499,178.852 946.5,190.5C 945.893,190.376 945.56,190.043 945.5,189.5C 946.495,178.679 946.828,167.679 946.5,156.5C 944.585,156.784 942.919,156.451 941.5,155.5 Z"/></g>
<g><path style="opacity:1" fill="#253881" d="M 417.5,158.5 C 420.269,159.437 422.936,160.604 425.5,162C 426.381,162.708 427.047,163.542 427.5,164.5C 425.177,163.222 422.677,162.222 420,161.5C 418.69,160.87 417.856,159.87 417.5,158.5 Z"/></g>
<g><path style="opacity:1" fill="#27418f" d="M 222.5,156.5 C 220.429,157.891 218.762,159.724 217.5,162C 212.344,164.357 207.344,166.857 202.5,169.5C 202.937,167.926 203.937,166.759 205.5,166C 210.473,163.511 215.14,160.511 219.5,157C 220.448,156.517 221.448,156.351 222.5,156.5 Z"/></g>
<g><path style="opacity:1" fill="#190732" d="M 1934.5,172.5 C 1947.67,171.655 1955.5,177.655 1958,190.5C 1958.67,194.167 1958.67,197.833 1958,201.5C 1957.1,202.701 1955.93,203.535 1954.5,204C 1940.24,207.273 1926.08,210.773 1912,214.5C 1910.52,199.22 1915.35,186.387 1926.5,176C 1929.31,174.907 1931.98,173.74 1934.5,172.5 Z"/></g>
<g><path style="opacity:1" fill="#190632" d="M 1557.5,177.5 C 1569.81,174.917 1579.64,178.583 1587,188.5C 1587.67,211.167 1587.67,233.833 1587,256.5C 1574.7,271.206 1560.2,274.039 1543.5,265C 1534.42,254.029 1530.42,241.362 1531.5,227C 1530.32,209.041 1536.32,194.041 1549.5,182C 1552.35,180.603 1555.02,179.103 1557.5,177.5 Z"/></g>
<g><path style="opacity:1" fill="#273f8c" d="M 200.5,169.5 C 195.831,172.512 191.498,176.012 187.5,180C 183.858,180.523 180.524,181.69 177.5,183.5C 181.191,179.984 185.525,177.484 190.5,176C 193.342,173.079 196.675,170.912 200.5,169.5 Z"/></g>
<g><path style="opacity:1" fill="#3379e6" d="M 344.5,204.5 C 343.883,204.611 343.383,204.944 343,205.5C 342.39,208.827 341.89,212.161 341.5,215.5C 339.48,221.008 337.647,226.674 336,232.5C 335.502,235.817 335.335,239.15 335.5,242.5C 334.221,248.786 333.221,255.119 332.5,261.5C 331.883,261.611 331.383,261.944 331,262.5C 330.844,266.134 329.844,269.467 328,272.5C 327.284,282.908 325.45,292.908 322.5,302.5C 322.5,302.833 322.5,303.167 322.5,303.5C 321.111,308.269 320.444,313.269 320.5,318.5C 320.768,320.099 320.434,321.432 319.5,322.5C 318.886,325.308 317.719,327.975 316,330.5C 315.498,333.513 314.998,336.513 314.5,339.5C 312.37,341.127 310.37,342.96 308.5,345C 304.848,345.499 301.182,345.665 297.5,345.5C 296.948,342.884 296.614,340.217 296.5,337.5C 297.5,330.833 298.5,324.167 299.5,317.5C 300.341,315.621 300.675,313.621 300.5,311.5C 303.225,302.414 305.725,293.081 308,283.5C 308.497,280.854 308.664,278.187 308.5,275.5C 308.5,274.167 308.5,272.833 308.5,271.5C 311.218,261.63 314.051,251.63 317,241.5C 319.837,223.287 323.504,205.287 328,187.5C 330.664,184.61 333.997,183.276 338,183.5C 340.603,183.965 343.103,184.632 345.5,185.5C 345.653,191.869 345.32,198.203 344.5,204.5 Z"/></g>
<g><path style="opacity:1" fill="#2d5fbd" d="M 438.5,171.5 C 439.873,171.343 441.207,171.51 442.5,172C 447.5,175.167 452.5,178.333 457.5,181.5C 458.086,181.291 458.586,180.957 459,180.5C 461.016,182.684 463.183,184.684 465.5,186.5C 467.06,241.822 467.727,297.155 467.5,352.5C 468.5,352.5 469.5,352.5 470.5,352.5C 470.5,352.833 470.5,353.167 470.5,353.5C 468.958,354.301 467.292,354.634 465.5,354.5C 465.832,298.664 465.499,242.998 464.5,187.5C 456.797,182.537 448.797,178.037 440.5,174C 439.619,173.292 438.953,172.458 438.5,171.5 Z"/></g>
<g><path style="opacity:1" fill="#253880" d="M 344.5,204.5 C 345.32,198.203 345.653,191.869 345.5,185.5C 343.103,184.632 340.603,183.965 338,183.5C 333.997,183.276 330.664,184.61 328,187.5C 323.504,205.287 319.837,223.287 317,241.5C 314.051,251.63 311.218,261.63 308.5,271.5C 310.519,260.458 312.353,249.458 314,238.5C 315.75,235.317 317.083,231.984 318,228.5C 319.541,214.204 322.541,200.204 327,186.5C 332.926,179.694 339.26,179.027 346,184.5C 347.036,186.87 347.536,189.37 347.5,192C 347.561,196.556 346.561,200.722 344.5,204.5 Z"/></g>
<g><path style="opacity:1" fill="#2b55ae" d="M 341.5,215.5 C 341.384,218.86 341.051,222.193 340.5,225.5C 338.736,230.546 337.569,235.88 337,241.5C 336.617,242.056 336.117,242.389 335.5,242.5C 335.335,239.15 335.502,235.817 336,232.5C 337.647,226.674 339.48,221.008 341.5,215.5 Z"/></g>
<g><path style="opacity:1" fill="#263c86" d="M 372.5,233.5 C 369.731,232.563 367.064,231.396 364.5,230C 356.733,229.603 353.067,233.436 353.5,241.5C 350.98,229.525 355.647,225.358 367.5,229C 369.398,230.417 371.064,231.917 372.5,233.5 Z"/></g>
<g><path style="opacity:1" fill="#190732" d="M 1050.5,229.5 C 1054.11,229.211 1057.61,229.544 1061,230.5C 1061.9,241.226 1061.57,251.893 1060,262.5C 1053.85,276.322 1043.68,280.822 1029.5,276C 1016.94,262.757 1017.6,250.09 1031.5,238C 1037.45,234.022 1043.78,231.188 1050.5,229.5 Z"/></g>
<g><path style="opacity:1" fill="#2b51a6" d="M 281.5,247.5 C 282.833,242.167 282.833,236.833 281.5,231.5C 278.15,231.335 274.817,231.502 271.5,232C 263.361,235.99 255.361,240.156 247.5,244.5C 254.187,240.669 260.521,236.169 266.5,231C 272.101,229.783 277.768,229.283 283.5,229.5C 284.266,234.82 284.432,240.154 284,245.5C 283.583,246.756 282.75,247.423 281.5,247.5 Z"/></g>
<g><path style="opacity:1" fill="#3378e5" d="M 372.5,233.5 C 374.913,235.887 377.58,238.054 380.5,240C 384.922,242.738 389.588,245.071 394.5,247C 395.337,248.011 395.67,249.178 395.5,250.5C 403.29,253.637 410.29,257.97 416.5,263.5C 418.368,266.577 419.701,269.91 420.5,273.5C 420.036,276.417 419.036,279.084 417.5,281.5C 416.448,281.351 415.448,281.517 414.5,282C 408.537,287.147 402.204,291.647 395.5,295.5C 389.162,299.508 382.828,303.508 376.5,307.5C 371.211,314.485 364.544,316.485 356.5,313.5C 354.022,308.329 353.855,302.996 356,297.5C 359.038,294.631 361.871,291.631 364.5,288.5C 364.833,288.5 365.167,288.5 365.5,288.5C 372.26,286.078 377.926,282.078 382.5,276.5C 383.622,275.053 385.122,274.053 387,273.5C 387.667,272.833 387.667,272.167 387,271.5C 381.584,268.742 376.75,265.242 372.5,261C 369.141,259.617 365.807,258.284 362.5,257C 360.707,254.205 358.54,251.705 356,249.5C 354.976,246.865 354.143,244.198 353.5,241.5C 353.067,233.436 356.733,229.603 364.5,230C 367.064,231.396 369.731,232.563 372.5,233.5 Z"/></g>
<g><path style="opacity:1" fill="#3379e5" d="M 281.5,247.5 C 280.585,249.754 279.252,251.754 277.5,253.5C 273.289,255.037 269.289,257.037 265.5,259.5C 264.702,259.957 264.369,260.624 264.5,261.5C 262.853,263.326 260.853,264.66 258.5,265.5C 255.804,267.27 252.971,268.936 250,270.5C 249.36,273.368 250.527,275.035 253.5,275.5C 256.474,277.462 259.474,279.462 262.5,281.5C 264.637,284.973 267.637,287.306 271.5,288.5C 274.21,290.945 277.044,293.278 280,295.5C 281.903,297.441 282.736,299.774 282.5,302.5C 282.837,306.308 282.337,309.974 281,313.5C 278.281,314.444 275.448,314.777 272.5,314.5C 266.196,310.688 259.862,307.021 253.5,303.5C 251.075,299.955 247.742,297.955 243.5,297.5C 237.189,294.008 231.189,290.008 225.5,285.5C 224.266,282.593 222.266,280.259 219.5,278.5C 218.167,275.167 218.167,271.833 219.5,268.5C 220.802,265.573 222.469,262.906 224.5,260.5C 230.821,258.28 236.155,254.614 240.5,249.5C 243.7,248.956 246.033,247.29 247.5,244.5C 255.361,240.156 263.361,235.99 271.5,232C 274.817,231.502 278.15,231.335 281.5,231.5C 282.833,236.833 282.833,242.167 281.5,247.5 Z"/></g>
<g><path style="opacity:1" fill="#1f1f59" d="M 340.5,225.5 C 337.812,238.315 335.645,251.315 334,264.5C 333.024,268.742 331.524,272.742 329.5,276.5C 330.607,271.523 331.607,266.523 332.5,261.5C 333.221,255.119 334.221,248.786 335.5,242.5C 336.117,242.389 336.617,242.056 337,241.5C 337.569,235.88 338.736,230.546 340.5,225.5 Z"/></g>
<g><path style="opacity:1" fill="#1f225e" d="M 609.5,98.5 C 611.385,156.494 611.718,214.494 610.5,272.5C 610.266,214.499 609.933,156.499 609.5,98.5 Z"/></g>
<g><path style="opacity:1" fill="#284a9d" d="M 605.5,96.5 C 607.062,96.7329 608.395,97.3995 609.5,98.5C 609.933,156.499 610.266,214.499 610.5,272.5C 610.167,272.5 609.833,272.5 609.5,272.5C 609.214,214.832 608.714,157.165 608,99.5C 606.955,98.6266 606.122,97.6266 605.5,96.5 Z"/></g>
<g><path style="opacity:1" fill="#2a4da0" d="M 240.5,249.5 C 236.155,254.614 230.821,258.28 224.5,260.5C 224.414,259.504 224.748,258.671 225.5,258C 230.262,254.622 235.262,251.789 240.5,249.5 Z"/></g>
<g><path style="opacity:1" fill="#284797" d="M 277.5,253.5 C 273.718,256.925 269.385,259.592 264.5,261.5C 264.369,260.624 264.702,259.957 265.5,259.5C 269.289,257.037 273.289,255.037 277.5,253.5 Z"/></g>
<g><path style="opacity:1" fill="#232f71" d="M 258.5,265.5 C 257.28,268.719 254.947,270.385 251.5,270.5C 251.392,272.514 252.058,274.18 253.5,275.5C 250.527,275.035 249.36,273.368 250,270.5C 252.971,268.936 255.804,267.27 258.5,265.5 Z"/></g>
<g><path style="opacity:1" fill="#2c59b3" d="M 224.5,260.5 C 222.469,262.906 220.802,265.573 219.5,268.5C 218.167,271.833 218.167,275.167 219.5,278.5C 222.266,280.259 224.266,282.593 225.5,285.5C 220.489,282.362 217.156,278.029 215.5,272.5C 216.23,266.773 219.23,262.773 224.5,260.5 Z"/></g>
<g><path style="opacity:1" fill="#284595" d="M 416.5,263.5 C 425.298,269.121 425.631,275.121 417.5,281.5C 419.036,279.084 420.036,276.417 420.5,273.5C 419.701,269.91 418.368,266.577 416.5,263.5 Z"/></g>
<g><path style="opacity:1" fill="#bab9bd" d="M 1586.5,274.5 C 1586.56,273.957 1586.89,273.624 1587.5,273.5C 1588.83,299.33 1588.83,324.997 1587.5,350.5C 1587.83,324.995 1587.5,299.661 1586.5,274.5 Z"/></g>
<g><path style="opacity:1" fill="#2a51a8" d="M 173.5,230.5 C 173.269,262.501 172.936,294.501 172.5,326.5C 172.168,336.19 172.502,345.856 173.5,355.5C 175.893,356.929 178.226,358.263 180.5,359.5C 177.67,359.306 175.004,358.639 172.5,357.5C 170.479,377.273 169.146,396.939 168.5,416.5C 168.5,410.833 168.5,405.167 168.5,399.5C 168.883,383.754 168.883,368.088 168.5,352.5C 169.496,352.586 170.329,352.252 171,351.5C 171.304,310.993 172.138,270.659 173.5,230.5 Z"/></g>
<g><path style="opacity:1" fill="#294ca0" d="M 602.5,276.5 C 599.207,279.381 595.54,281.714 591.5,283.5C 591.937,281.926 592.937,280.759 594.5,280C 597.064,278.604 599.731,277.437 602.5,276.5 Z"/></g>
<g><path style="opacity:1" fill="#2a4fa4" d="M 332.5,261.5 C 331.607,266.523 330.607,271.523 329.5,276.5C 328.309,284.979 326.476,293.312 324,301.5C 323.617,302.056 323.117,302.389 322.5,302.5C 325.45,292.908 327.284,282.908 328,272.5C 329.844,269.467 330.844,266.134 331,262.5C 331.383,261.944 331.883,261.611 332.5,261.5 Z"/></g>
<g><path style="opacity:1" fill="#294a9d" d="M 41.5,282.5 C 45.2219,282.861 48.2219,284.528 50.5,287.5C 47.1443,286.389 44.1443,284.723 41.5,282.5 Z"/></g>
<g><path style="opacity:1" fill="#29499b" d="M 262.5,281.5 C 266.051,283.111 269.051,285.444 271.5,288.5C 267.637,287.306 264.637,284.973 262.5,281.5 Z"/></g>
<g><path style="opacity:1" fill="#274392" d="M 417.5,281.5 C 413.586,284.754 409.586,287.921 405.5,291C 402.009,292.37 398.675,293.87 395.5,295.5C 402.204,291.647 408.537,287.147 414.5,282C 415.448,281.517 416.448,281.351 417.5,281.5 Z"/></g>
<g><path style="opacity:1" fill="#2b51a8" d="M 382.5,276.5 C 377.926,282.078 372.26,286.078 365.5,288.5C 366.625,286.871 367.959,285.371 369.5,284C 373.977,281.677 378.31,279.177 382.5,276.5 Z"/></g>
<g><path style="opacity:1" fill="#253880" d="M 50.5,287.5 C 57.595,289.88 63.9283,293.547 69.5,298.5C 68.448,298.649 67.448,298.483 66.5,298C 60.9304,294.725 55.5971,291.225 50.5,287.5 Z"/></g>
<g><path style="opacity:1" fill="#274493" d="M 308.5,275.5 C 308.664,278.187 308.497,280.854 308,283.5C 305.725,293.081 303.225,302.414 300.5,311.5C 302.293,299.187 304.96,287.187 308.5,275.5 Z"/></g>
<g><path style="opacity:1" fill="#233278" d="M 364.5,288.5 C 361.871,291.631 359.038,294.631 356,297.5C 353.855,302.996 354.022,308.329 356.5,313.5C 355.542,313.047 354.708,312.381 354,311.5C 353.333,307.167 353.333,302.833 354,298.5C 356.732,294.266 360.232,290.933 364.5,288.5 Z"/></g>
<g><path style="opacity:1" fill="#284798" d="M 243.5,297.5 C 247.742,297.955 251.075,299.955 253.5,303.5C 249.575,302.421 246.242,300.421 243.5,297.5 Z"/></g>
<g><path style="opacity:1" fill="#284a9b" d="M 395.5,295.5 C 392.779,298.259 389.779,300.759 386.5,303C 383.253,304.792 379.919,306.292 376.5,307.5C 382.828,303.508 389.162,299.508 395.5,295.5 Z"/></g>
<g><path style="opacity:1" fill="#232b6c" d="M 563.5,299.5 C 561.598,303.057 558.598,305.057 554.5,305.5C 554.281,304.325 554.614,303.325 555.5,302.5C 558.188,301.487 560.854,300.487 563.5,299.5 Z"/></g>
<g><path style="opacity:1" fill="#2d5bb6" d="M 90.5,308.5 C 93.8968,309.374 97.2301,310.541 100.5,312C 102.746,313.257 104.079,315.09 104.5,317.5C 105.873,317.343 107.207,317.51 108.5,318C 110.431,318.902 112.097,320.069 113.5,321.5C 110.103,320.626 106.77,319.459 103.5,318C 98.4026,315.716 94.0692,312.549 90.5,308.5 Z"/></g>
<g><path style="opacity:1" fill="#28499a" d="M 322.5,303.5 C 322.698,308.75 322.031,313.75 320.5,318.5C 320.444,313.269 321.111,308.269 322.5,303.5 Z"/></g>
<g><path style="opacity:1" fill="#223072" d="M 282.5,302.5 C 283.88,306.437 283.714,310.437 282,314.5C 278.682,316.984 275.515,316.984 272.5,314.5C 275.448,314.777 278.281,314.444 281,313.5C 282.337,309.974 282.837,306.308 282.5,302.5 Z"/></g>
<g><path style="opacity:1" fill="#243277" d="M 547.5,308.5 C 543.292,312.623 538.625,316.123 533.5,319C 529.233,321.966 524.567,324.132 519.5,325.5C 522.684,322.875 526.017,320.208 529.5,317.5C 535.872,314.989 541.872,311.989 547.5,308.5 Z"/></g>
<g><path style="opacity:1" fill="#223074" d="M 177.5,183.5 C 177.217,184.289 176.717,184.956 176,185.5C 175.372,232.677 174.205,279.677 172.5,326.5C 172.936,294.501 173.269,262.501 173.5,230.5C 174.193,215.179 174.693,199.846 175,184.5C 175.671,183.748 176.504,183.414 177.5,183.5 Z"/></g>
<g><path style="opacity:1" fill="#294ca0" d="M 319.5,322.5 C 320.084,325.983 319.251,328.983 317,331.5C 316.902,334.522 316.068,337.189 314.5,339.5C 314.998,336.513 315.498,333.513 316,330.5C 317.719,327.975 318.886,325.308 319.5,322.5 Z"/></g>
<g><path style="opacity:1" fill="#222868" d="M 120.5,326.5 C 125.014,328.809 129.681,330.976 134.5,333C 137.107,334.572 139.441,336.406 141.5,338.5C 137.095,336.256 132.595,334.256 128,332.5C 125.149,330.839 122.649,328.839 120.5,326.5 Z"/></g>
<g><path style="opacity:1" fill="#26408e" d="M 299.5,317.5 C 298.5,324.167 297.5,330.833 296.5,337.5C 296.614,340.217 296.948,342.884 297.5,345.5C 296.883,345.389 296.383,345.056 296,344.5C 294.81,335.045 295.976,326.045 299.5,317.5 Z"/></g>
<g><path style="opacity:1" fill="#274391" d="M 145.5,339.5 C 148.856,340.611 151.856,342.277 154.5,344.5C 150.778,344.139 147.778,342.472 145.5,339.5 Z"/></g>
<g><path style="opacity:1" fill="#27408d" d="M 509.5,330.5 C 506.217,333.276 502.55,335.443 498.5,337C 496.792,339.043 494.792,340.71 492.5,342C 485.841,345.041 479.508,348.541 473.5,352.5C 472.391,352.557 471.391,352.89 470.5,353.5C 470.5,353.167 470.5,352.833 470.5,352.5C 479.404,347.039 488.404,341.539 497.5,336C 498.833,335.667 500.167,335.333 501.5,335C 503.456,332.19 506.123,330.69 509.5,330.5 Z"/></g>
<g><path style="opacity:1" fill="#294ca0" d="M 314.5,339.5 C 313.457,342.056 311.79,344.223 309.5,346C 305.311,346.812 301.311,346.645 297.5,345.5C 301.182,345.665 304.848,345.499 308.5,345C 310.37,342.96 312.37,341.127 314.5,339.5 Z"/></g>
<g><path style="opacity:1" fill="#212868" d="M 464.5,187.5 C 465.499,242.998 465.832,298.664 465.5,354.5C 467.292,354.634 468.958,354.301 470.5,353.5C 471.391,352.89 472.391,352.557 473.5,352.5C 472.033,354.363 470.033,355.696 467.5,356.5C 466.721,385.002 465.721,413.335 464.5,441.5C 464.5,437.167 464.5,432.833 464.5,428.5C 464.887,404.834 465.221,381.168 465.5,357.5C 464.5,357.5 463.5,357.5 462.5,357.5C 462.783,356.711 463.283,356.044 464,355.5C 464.5,299.501 464.667,243.501 464.5,187.5 Z"/></g>
<g><path style="opacity:1" fill="#337be9" d="M 180.5,359.5 C 180.973,360.906 181.973,361.573 183.5,361.5C 186.374,364.077 189.707,366.077 193.5,367.5C 196.156,370.289 199.489,371.956 203.5,372.5C 204.716,374.451 206.382,375.951 208.5,377C 213.517,378.843 218.517,380.843 223.5,383C 224.167,384 224.833,385 225.5,386C 232.642,388.4 238.976,392.067 244.5,397C 248.3,399.129 252.3,400.796 256.5,402C 258.88,404.354 261.546,406.354 264.5,408C 270.814,411.267 277.148,414.434 283.5,417.5C 285.971,418.736 287.971,420.569 289.5,423C 290.793,423.49 292.127,423.657 293.5,423.5C 295.637,424.787 297.97,425.621 300.5,426C 301.743,427.154 302.743,428.488 303.5,430C 306.747,431.792 310.081,433.292 313.5,434.5C 314.519,436.101 316.019,437.101 318,437.5C 321.828,435.757 325.328,433.757 328.5,431.5C 330.181,429.992 332.181,428.992 334.5,428.5C 338.579,427.225 341.912,424.892 344.5,421.5C 345.873,421.657 347.207,421.49 348.5,421C 350.683,419.223 353.016,417.723 355.5,416.5C 358.599,416.908 360.933,415.741 362.5,413C 366.385,411.147 370.385,409.48 374.5,408C 376.767,407.106 378.434,405.606 379.5,403.5C 381.179,403.108 382.846,402.608 384.5,402C 387.962,399.585 391.295,397.085 394.5,394.5C 404.671,390.234 414.338,385.234 423.5,379.5C 425.606,378.217 427.94,377.384 430.5,377C 432.526,375.406 434.526,373.906 436.5,372.5C 442.048,369.799 447.715,367.299 453.5,365C 455.319,364.26 456.652,363.093 457.5,361.5C 459.435,360.85 461.435,360.517 463.5,360.5C 462.637,401.493 462.304,442.493 462.5,483.5C 462.667,496.837 462.5,510.171 462,523.5C 456.895,524.785 452.728,527.452 449.5,531.5C 445.24,532.632 441.24,534.299 437.5,536.5C 429.379,539.619 421.712,543.619 414.5,548.5C 414.167,549.167 413.833,549.833 413.5,550.5C 411.199,551.06 408.866,551.56 406.5,552C 402.558,553.792 399.224,556.292 396.5,559.5C 368.056,575.459 339.39,591.125 310.5,606.5C 301.649,601.052 292.649,595.885 283.5,591C 272.265,582.781 260.265,575.781 247.5,570C 245.167,569 243.5,567.333 242.5,565C 237.047,561.88 231.38,559.214 225.5,557C 224.743,555.488 223.743,554.154 222.5,553C 217.253,550.237 211.92,547.737 206.5,545.5C 202.369,542.539 198.369,539.373 194.5,536C 191.606,534.207 188.606,532.707 185.5,531.5C 182.401,531.908 180.067,530.741 178.5,528C 177.167,527.667 175.833,527.333 174.5,527C 172.226,524.214 169.56,522.047 166.5,520.5C 167.592,487.509 168.259,454.509 168.5,421.5C 168.5,419.833 168.5,418.167 168.5,416.5C 169.146,396.939 170.479,377.273 172.5,357.5C 175.004,358.639 177.67,359.306 180.5,359.5 Z"/></g>
<g><path style="opacity:1" fill="#233074" d="M 183.5,361.5 C 187.565,362.223 190.899,364.223 193.5,367.5C 189.707,366.077 186.374,364.077 183.5,361.5 Z"/></g>
<g><path style="opacity:1" fill="#27418f" d="M 457.5,361.5 C 456.652,363.093 455.319,364.26 453.5,365C 447.715,367.299 442.048,369.799 436.5,372.5C 436.953,371.542 437.619,370.708 438.5,370C 444.686,366.88 451.02,364.047 457.5,361.5 Z"/></g>
<g><path style="opacity:1" fill="#2f67ca" d="M 461.5,359.5 C 462.5,359.5 463.5,359.5 464.5,359.5C 463.856,382.494 463.522,405.494 463.5,428.5C 463.83,447.008 463.497,465.341 462.5,483.5C 462.304,442.493 462.637,401.493 463.5,360.5C 461.435,360.517 459.435,360.85 457.5,361.5C 458.287,359.896 459.62,359.229 461.5,359.5 Z"/></g>
<g><path style="opacity:1" fill="#253881" d="M 193.5,367.5 C 194.873,367.343 196.207,367.51 197.5,368C 199.526,369.594 201.526,371.094 203.5,372.5C 199.489,371.956 196.156,370.289 193.5,367.5 Z"/></g>
<g><path style="opacity:1" fill="#23357a" d="M 436.5,372.5 C 434.526,373.906 432.526,375.406 430.5,377C 427.94,377.384 425.606,378.217 423.5,379.5C 423.953,378.542 424.619,377.708 425.5,377C 429.06,375.282 432.727,373.782 436.5,372.5 Z"/></g>
<g><path style="opacity:1" fill="#222d6f" d="M 394.5,394.5 C 391.295,397.085 387.962,399.585 384.5,402C 382.846,402.608 381.179,403.108 379.5,403.5C 383.756,399.24 388.756,396.24 394.5,394.5 Z"/></g>
<g><path style="opacity:1" fill="#294ea2" d="M 379.5,403.5 C 378.434,405.606 376.767,407.106 374.5,408C 370.385,409.48 366.385,411.147 362.5,413C 360.933,415.741 358.599,416.908 355.5,416.5C 358.989,413.863 362.655,411.363 366.5,409C 371.364,408.218 375.698,406.385 379.5,403.5 Z"/></g>
<g><path style="opacity:1" fill="#294fa4" d="M 462.5,357.5 C 463.5,357.5 464.5,357.5 465.5,357.5C 465.221,381.168 464.887,404.834 464.5,428.5C 464.167,428.5 463.833,428.5 463.5,428.5C 463.522,405.494 463.856,382.494 464.5,359.5C 463.5,359.5 462.5,359.5 461.5,359.5C 461.833,358.833 462.167,358.167 462.5,357.5 Z"/></g>
<g><path style="opacity:1" fill="#d7d6d7" d="M 1225.5,420.5 C 1227.47,420.261 1229.3,420.594 1231,421.5C 1231.33,426.167 1231.67,430.833 1232,435.5C 1238.29,429.952 1244.29,430.285 1250,436.5C 1251.1,440.72 1251.6,445.053 1251.5,449.5C 1251.33,453.167 1251.17,456.833 1251,460.5C 1248.93,462.648 1246.59,462.982 1244,461.5C 1243.89,454.089 1243.22,446.755 1242,439.5C 1237.64,436.666 1234.31,437.666 1232,442.5C 1231.67,448.833 1231.33,455.167 1231,461.5C 1229,462.833 1227,462.833 1225,461.5C 1224.19,447.758 1224.35,434.092 1225.5,420.5 Z"/></g>
<g><path style="opacity:1" fill="#d4d4d5" d="M 1482.5,420.5 C 1484.26,420.357 1485.93,420.691 1487.5,421.5C 1488.67,434.487 1488.83,447.487 1488,460.5C 1485.67,463.167 1483.33,463.167 1481,460.5C 1480.33,447.833 1480.33,435.167 1481,422.5C 1481.72,421.956 1482.22,421.289 1482.5,420.5 Z"/></g>
<g><path style="opacity:1" fill="#d7d7d8" d="M 1533.5,420.5 C 1535.47,420.261 1537.3,420.594 1539,421.5C 1539.67,434.833 1539.67,448.167 1539,461.5C 1535.58,463.133 1533.25,462.133 1532,458.5C 1524.18,464.608 1517.52,463.608 1512,455.5C 1510.49,450.254 1510.16,444.921 1511,439.5C 1516.53,430.516 1523.53,429.183 1532,435.5C 1532.22,430.418 1532.72,425.418 1533.5,420.5 Z"/></g>
<g><path style="opacity:1" fill="#d4d4d5" d="M 1716.5,420.5 C 1719.04,420.104 1721.21,420.771 1723,422.5C 1723.17,426.541 1723.67,430.541 1724.5,434.5C 1731.33,429.879 1737.16,430.879 1742,437.5C 1742.67,445.167 1742.67,452.833 1742,460.5C 1739.67,463.167 1737.33,463.167 1735,460.5C 1734.67,453.833 1734.33,447.167 1734,440.5C 1730.3,436.418 1726.97,436.751 1724,441.5C 1723.67,447.833 1723.33,454.167 1723,460.5C 1720.93,462.648 1718.59,462.982 1716,461.5C 1715.19,447.758 1715.35,434.092 1716.5,420.5 Z"/></g>
<g><path style="opacity:1" fill="#d8d8d9" d="M 836.5,421.5 C 844.507,421.334 852.507,421.5 860.5,422C 868.91,427.127 869.576,433.127 862.5,440C 870.432,445.256 871.432,451.589 865.5,459C 864.167,459.667 862.833,460.333 861.5,461C 852.921,461.816 844.421,461.649 836,460.5C 835.187,447.425 835.354,434.425 836.5,421.5 Z"/></g>
<g><path style="opacity:1" fill="#cbcacc" d="M 993.5,420.5 C 998.668,421.339 999.668,423.839 996.5,428C 989.934,427.805 988.934,425.305 993.5,420.5 Z"/></g>
<g><path style="opacity:1" fill="#ccccce" d="M 1144.5,420.5 C 1149.26,421.092 1150.6,423.592 1148.5,428C 1142.2,428.495 1140.87,425.995 1144.5,420.5 Z"/></g>
<g><path style="opacity:1" fill="#d6d6d7" d="M 1345.5,421.5 C 1353.17,421.334 1360.84,421.5 1368.5,422C 1375.11,424.208 1377.28,428.708 1375,435.5C 1374.22,437.286 1373.05,438.786 1371.5,440C 1379.12,446.285 1379.46,452.952 1372.5,460C 1367.78,461.112 1362.94,461.612 1358,461.5C 1353.83,461.333 1349.67,461.167 1345.5,461C 1345,460.5 1344.5,460 1344,459.5C 1343.33,447.5 1343.33,435.5 1344,423.5C 1344.72,422.956 1345.22,422.289 1345.5,421.5 Z"/></g>
<g><path style="opacity:1" fill="#cbcacc" d="M 1452.5,420.5 C 1457.67,421.339 1458.67,423.839 1455.5,428C 1448.93,427.805 1447.93,425.305 1452.5,420.5 Z"/></g>
<g><path style="opacity:1" fill="#c8c7ca" d="M 1635.5,420.5 C 1641.5,420.741 1642.83,423.241 1639.5,428C 1633.4,428.147 1632.07,425.647 1635.5,420.5 Z"/></g>
<g><path style="opacity:1" fill="#24347b" d="M 283.5,417.5 C 287.605,418.283 290.939,420.283 293.5,423.5C 292.127,423.657 290.793,423.49 289.5,423C 287.971,420.569 285.971,418.736 283.5,417.5 Z"/></g>
<g><path style="opacity:1" fill="#d4d4d5" d="M 1277.5,421.5 C 1279.72,421.178 1281.56,421.845 1283,423.5C 1283.5,426.482 1283.66,429.482 1283.5,432.5C 1285.2,432.34 1286.87,432.506 1288.5,433C 1289.6,436.861 1287.94,438.695 1283.5,438.5C 1283.33,444.176 1283.5,449.843 1284,455.5C 1286.38,456.435 1288.88,456.768 1291.5,456.5C 1291.82,458.722 1291.16,460.556 1289.5,462C 1286.17,462.667 1282.83,462.667 1279.5,462C 1278,461.167 1276.83,460 1276,458.5C 1275.83,451.809 1275.33,445.142 1274.5,438.5C 1270.27,435.54 1270.61,433.54 1275.5,432.5C 1275.01,428.513 1275.68,424.846 1277.5,421.5 Z"/></g>
<g><path style="opacity:1" fill="#d8d7d8" d="M 1767.5,457.5 C 1767.5,450.833 1767.5,444.167 1767.5,437.5C 1766.5,437.5 1765.5,437.5 1764.5,437.5C 1762.73,436.686 1762.23,435.352 1763,433.5C 1764.01,432.663 1765.18,432.33 1766.5,432.5C 1766.34,429.482 1766.5,426.482 1767,423.5C 1769.33,420.833 1771.67,420.833 1774,423.5C 1774.5,426.482 1774.66,429.482 1774.5,432.5C 1776.2,432.34 1777.87,432.506 1779.5,433C 1780.83,434.333 1780.83,435.667 1779.5,437C 1777.87,437.494 1776.2,437.66 1774.5,437.5C 1774.33,443.176 1774.5,448.843 1775,454.5C 1777.13,456.138 1779.63,456.971 1782.5,457C 1784.01,459.454 1783.35,461.121 1780.5,462C 1777.17,462.667 1773.83,462.667 1770.5,462C 1768.86,460.871 1767.86,459.371 1767.5,457.5 Z"/></g>
<g><path style="opacity:1" fill="#273f8a" d="M 344.5,421.5 C 341.912,424.892 338.579,427.225 334.5,428.5C 337.275,425.395 340.608,423.062 344.5,421.5 Z"/></g>
<g><path style="opacity:1" fill="#190632" d="M 843.5,427.5 C 848.536,427.062 853.369,427.728 858,429.5C 858.944,432.347 858.444,434.847 856.5,437C 852.179,437.499 847.846,437.666 843.5,437.5C 843.5,434.167 843.5,430.833 843.5,427.5 Z"/></g>
<g><path style="opacity:1" fill="#190832" d="M 1352.5,427.5 C 1357.54,427.062 1362.37,427.728 1367,429.5C 1368.21,432.834 1367.38,435.334 1364.5,437C 1360.51,437.499 1356.51,437.666 1352.5,437.5C 1352.5,434.167 1352.5,430.833 1352.5,427.5 Z"/></g>
<g><path style="opacity:1" fill="#202766" d="M 168.5,399.5 C 168.5,405.167 168.5,410.833 168.5,416.5C 168.5,418.167 168.5,419.833 168.5,421.5C 167.833,433.5 167.167,445.5 166.5,457.5C 166.09,437.97 166.757,418.637 168.5,399.5 Z"/></g>
<g><path style="opacity:1" fill="#d1d1d2" d="M 899.5,431.5 C 912.168,429.682 918.335,435.015 918,447.5C 917.25,448.126 916.416,448.626 915.5,449C 909.5,449.333 903.5,449.667 897.5,450C 897.925,454.259 900.258,456.759 904.5,457.5C 908.047,457.043 911.047,455.543 913.5,453C 918.142,451.968 919.308,453.468 917,457.5C 910.964,462.722 904.131,463.889 896.5,461C 889.044,454.356 887.544,446.522 892,437.5C 894.114,434.879 896.614,432.879 899.5,431.5 Z"/></g>
<g><path style="opacity:1" fill="#d3d2d4" d="M 946.5,431.5 C 952.07,430.416 956.57,432.083 960,436.5C 960.567,431.277 962.901,430.277 967,433.5C 967.667,444.167 967.667,454.833 967,465.5C 965.73,469.77 962.896,472.27 958.5,473C 953.411,473.826 948.411,473.492 943.5,472C 940.75,470.915 939.083,468.915 938.5,466C 939,464.167 940.167,463 942,462.5C 944.112,463.608 945.946,465.108 947.5,467C 950.833,467.667 954.167,467.667 957.5,467C 959.347,464.421 959.847,461.588 959,458.5C 946.272,464.881 939.106,460.881 937.5,446.5C 937.737,439.669 940.737,434.669 946.5,431.5 Z"/></g>
<g><path style="opacity:1" fill="#d4d4d5" d="M 992.5,431.5 C 994.722,431.178 996.556,431.845 998,433.5C 998.667,442.5 998.667,451.5 998,460.5C 995.667,463.167 993.333,463.167 991,460.5C 990.333,451.833 990.333,443.167 991,434.5C 991.513,433.473 992.013,432.473 992.5,431.5 Z"/></g>
<g><path style="opacity:1" fill="#d4d4d5" d="M 1023.5,431.5 C 1027.38,430.874 1029.21,432.541 1029,436.5C 1034.67,430.213 1040.67,429.88 1047,435.5C 1048.11,439.888 1048.61,444.388 1048.5,449C 1048.33,452.833 1048.17,456.667 1048,460.5C 1045.67,463.167 1043.33,463.167 1041,460.5C 1040.67,453.833 1040.33,447.167 1040,440.5C 1036.51,436.627 1033.18,436.96 1030,441.5C 1029.67,447.833 1029.33,454.167 1029,460.5C 1026.67,463.167 1024.33,463.167 1022,460.5C 1021.33,451.5 1021.33,442.5 1022,433.5C 1022.72,432.956 1023.22,432.289 1023.5,431.5 Z"/></g>
<g><path style="opacity:1" fill="#d4d4d5" d="M 1103.5,431.5 C 1106.86,430.79 1108.69,432.124 1109,435.5C 1113.78,430.107 1118.28,430.273 1122.5,436C 1120.82,439.592 1118.15,440.425 1114.5,438.5C 1112.62,438.876 1111.12,439.876 1110,441.5C 1109.67,447.833 1109.33,454.167 1109,460.5C 1106.6,463.054 1104.27,463.054 1102,460.5C 1101.33,451.5 1101.33,442.5 1102,433.5C 1102.72,432.956 1103.22,432.289 1103.5,431.5 Z"/></g>
<g><path style="opacity:1" fill="#dbdadb" d="M 1143.5,431.5 C 1145.26,431.357 1146.93,431.691 1148.5,432.5C 1149.67,442.149 1149.83,451.816 1149,461.5C 1147,462.833 1145,462.833 1143,461.5C 1142.19,451.423 1142.36,441.423 1143.5,431.5 Z"/></g>
<g><path style="opacity:1" fill="#d2d1d3" d="M 1179.5,431.5 C 1184.72,430.702 1189.22,432.036 1193,435.5C 1194.85,431.205 1197.51,430.538 1201,433.5C 1201.67,443.5 1201.67,453.5 1201,463.5C 1200.3,467.066 1198.47,469.9 1195.5,472C 1190.25,473.506 1184.92,473.839 1179.5,473C 1174.92,471.778 1172.75,468.944 1173,464.5C 1173.74,463.426 1174.74,462.759 1176,462.5C 1178.11,463.608 1179.95,465.108 1181.5,467C 1190.48,469.782 1194.31,466.615 1193,457.5C 1186.38,463.062 1180.05,462.728 1174,456.5C 1169.31,446.541 1171.15,438.207 1179.5,431.5 Z"/></g>
<g><path style="opacity:1" fill="#d5d4d5" d="M 1401.5,431.5 C 1403.72,431.178 1405.56,431.845 1407,433.5C 1407.11,440.911 1407.78,448.245 1409,455.5C 1412.92,457.25 1415.92,456.25 1418,452.5C 1418.08,445.726 1418.74,439.059 1420,432.5C 1422.27,431.065 1424.27,431.398 1426,433.5C 1426.82,443.078 1426.65,452.578 1425.5,462C 1421.86,463.357 1419.69,462.19 1419,458.5C 1412.93,463.765 1406.93,463.765 1401,458.5C 1399.89,454.112 1399.39,449.612 1399.5,445C 1399.67,441.167 1399.83,437.333 1400,433.5C 1400.72,432.956 1401.22,432.289 1401.5,431.5 Z"/></g>
<g><path style="opacity:1" fill="#d4d4d5" d="M 1451.5,431.5 C 1453.72,431.178 1455.56,431.845 1457,433.5C 1457.67,442.5 1457.67,451.5 1457,460.5C 1454.67,463.167 1452.33,463.167 1450,460.5C 1449.33,451.833 1449.33,443.167 1450,434.5C 1450.51,433.473 1451.01,432.473 1451.5,431.5 Z"/></g>
<g><path style="opacity:1" fill="#d3d2d4" d="M 1594.5,431.5 C 1597.32,431.081 1599.49,432.081 1601,434.5C 1603.21,431.71 1606.04,430.877 1609.5,432C 1613.22,433.259 1614.22,435.592 1612.5,439C 1610.32,439.419 1608.15,439.252 1606,438.5C 1604.29,438.439 1602.96,439.106 1602,440.5C 1600.84,447.103 1600.17,453.77 1600,460.5C 1597.67,463.167 1595.33,463.167 1593,460.5C 1592.33,451.5 1592.33,442.5 1593,433.5C 1593.72,432.956 1594.22,432.289 1594.5,431.5 Z"/></g>
<g><path style="opacity:1" fill="#d4d3d4" d="M 1635.5,431.5 C 1638.24,430.965 1640.07,431.965 1641,434.5C 1641.67,443.167 1641.67,451.833 1641,460.5C 1638.6,463.054 1636.27,463.054 1634,460.5C 1633.33,451.5 1633.33,442.5 1634,433.5C 1634.72,432.956 1635.22,432.289 1635.5,431.5 Z"/></g>
<g><path style="opacity:1" fill="#d3d2d4" d="M 1671.5,431.5 C 1677.07,430.416 1681.57,432.083 1685,436.5C 1685.57,431.277 1687.9,430.277 1692,433.5C 1692.67,444.167 1692.67,454.833 1692,465.5C 1690.73,469.77 1687.9,472.27 1683.5,473C 1678.41,473.826 1673.41,473.492 1668.5,472C 1665.75,470.915 1664.08,468.915 1663.5,466C 1664,464.167 1665.17,463 1667,462.5C 1669.11,463.608 1670.95,465.108 1672.5,467C 1675.83,467.667 1679.17,467.667 1682.5,467C 1684.35,464.421 1684.85,461.588 1684,458.5C 1671.27,464.881 1664.11,460.881 1662.5,446.5C 1662.74,439.669 1665.74,434.669 1671.5,431.5 Z"/></g>
<g><path style="opacity:1" fill="#263d88" d="M 328.5,431.5 C 325.328,433.757 321.828,435.757 318,437.5C 316.019,437.101 314.519,436.101 313.5,434.5C 315.782,435.39 318.115,435.556 320.5,435C 323.032,433.544 325.699,432.377 328.5,431.5 Z"/></g>
<g><path style="opacity:1" fill="#1b0a33" d="M 901.5,437.5 C 907.188,436.531 910.188,438.864 910.5,444.5C 906.116,444.826 901.783,444.492 897.5,443.5C 898.361,441.089 899.694,439.089 901.5,437.5 Z"/></g>
<g><path style="opacity:1" fill="#1b0a33" d="M 949.5,437.5 C 954.133,436.458 957.299,438.125 959,442.5C 961.598,452.222 958.098,456.389 948.5,455C 944.492,448.894 944.825,443.06 949.5,437.5 Z"/></g>
<g><path style="opacity:1" fill="#1b0a34" d="M 1183.5,437.5 C 1191.98,437.765 1195.15,442.099 1193,450.5C 1192.73,452.329 1191.89,453.829 1190.5,455C 1187.01,456.004 1183.84,455.504 1181,453.5C 1178.31,447.45 1179.15,442.117 1183.5,437.5 Z"/></g>
<g><path style="opacity:1" fill="#1b0a34" d="M 1522.5,437.5 C 1526.68,436.846 1529.52,438.512 1531,442.5C 1531.67,445.833 1531.67,449.167 1531,452.5C 1529.18,455.991 1526.35,457.157 1522.5,456C 1520.67,455.5 1519.5,454.333 1519,452.5C 1518.33,448.833 1518.33,445.167 1519,441.5C 1519.69,439.65 1520.86,438.316 1522.5,437.5 Z"/></g>
<g><path style="opacity:1" fill="#1b0a33" d="M 1674.5,437.5 C 1679.13,436.458 1682.3,438.125 1684,442.5C 1686.6,452.222 1683.1,456.389 1673.5,455C 1669.49,448.894 1669.83,443.06 1674.5,437.5 Z"/></g>
<g><path style="opacity:1" fill="#898590" d="M 1764.5,437.5 C 1765.5,437.5 1766.5,437.5 1767.5,437.5C 1767.5,444.167 1767.5,450.833 1767.5,457.5C 1767.09,450.739 1766.09,444.072 1764.5,437.5 Z"/></g>
<g><path style="opacity:1" fill="#1d0d35" d="M 843.5,443.5 C 849.352,442.861 854.852,443.861 860,446.5C 861.379,450.475 860.213,453.309 856.5,455C 852.179,455.499 847.846,455.666 843.5,455.5C 843.5,451.5 843.5,447.5 843.5,443.5 Z"/></g>
<g><path style="opacity:1" fill="#1e0e36" d="M 1352.5,443.5 C 1358.07,442.99 1363.41,443.823 1368.5,446C 1369.87,448.833 1369.54,451.5 1367.5,454C 1362.6,455.325 1357.6,455.825 1352.5,455.5C 1352.5,451.5 1352.5,447.5 1352.5,443.5 Z"/></g>
<g><path style="opacity:1" fill="#cfced0" d="M 1312.5,454.5 C 1319,454.138 1320.67,456.638 1317.5,462C 1310.74,462.756 1309.08,460.256 1312.5,454.5 Z"/></g>
<g><path style="opacity:1" fill="#c3c1c5" d="M 1800.5,454.5 C 1806.02,455.044 1807.35,457.544 1804.5,462C 1798.4,462.147 1797.07,459.647 1800.5,454.5 Z"/></g>
<g><path style="opacity:1" fill="#1d1950" d="M 166.5,461.5 C 165.897,481.161 165.563,500.828 165.5,520.5C 164.834,512.674 164.5,504.674 164.5,496.5C 164.318,484.628 164.985,472.961 166.5,461.5 Z"/></g>
<g><path style="opacity:1" fill="#2a51a8" d="M 168.5,421.5 C 168.259,454.509 167.592,487.509 166.5,520.5C 166.167,520.5 165.833,520.5 165.5,520.5C 165.563,500.828 165.897,481.161 166.5,461.5C 166.5,460.167 166.5,458.833 166.5,457.5C 167.167,445.5 167.833,433.5 168.5,421.5 Z"/></g>
<g><path style="opacity:1" fill="#24347a" d="M 463.5,428.5 C 463.833,428.5 464.167,428.5 464.5,428.5C 464.5,432.833 464.5,437.167 464.5,441.5C 464.667,468.502 464.5,495.502 464,522.5C 463.626,523.416 463.126,524.25 462.5,525C 457.907,526.745 453.573,528.912 449.5,531.5C 452.728,527.452 456.895,524.785 462,523.5C 462.5,510.171 462.667,496.837 462.5,483.5C 463.497,465.341 463.83,447.008 463.5,428.5 Z"/></g>
<g><path style="opacity:1" fill="#25377f" d="M 185.5,531.5 C 188.606,532.707 191.606,534.207 194.5,536C 198.369,539.373 202.369,542.539 206.5,545.5C 204.288,544.355 201.955,543.355 199.5,542.5C 194.476,539.317 189.809,535.65 185.5,531.5 Z"/></g>
<g><path style="opacity:1" fill="#2c5ab6" d="M 437.5,536.5 C 430.86,539.601 424.526,543.435 418.5,548C 417.207,548.49 415.873,548.657 414.5,548.5C 421.712,543.619 429.379,539.619 437.5,536.5 Z"/></g>
<g><path style="opacity:1" fill="#284798" d="M 413.5,550.5 C 407.955,553.685 402.288,556.685 396.5,559.5C 399.224,556.292 402.558,553.792 406.5,552C 408.866,551.56 411.199,551.06 413.5,550.5 Z"/></g>
</svg>
