<?xml version="1.0" encoding="UTF-8"?>
<!DOCTYPE svg PUBLIC "-//W3C//DTD SVG 1.1//EN" "http://www.w3.org/Graphics/SVG/1.1/DTD/svg11.dtd">
<svg xmlns="http://www.w3.org/2000/svg" version="1.1" width="200px" height="90px" style="shape-rendering:geometricPrecision; text-rendering:geometricPrecision; image-rendering:optimizeQuality; fillRule:evenodd; clip-rule:evenodd" xmlns:xlink="http://www.w3.org/1999/xlink">
<g><path style="opacity:1" fill="#fcfdfd" d="M -0.5,-0.5 C 66.1667,-0.5 132.833,-0.5 199.5,-0.5C 199.5,29.5 199.5,59.5 199.5,89.5C 132.833,89.5 66.1667,89.5 -0.5,89.5C -0.5,59.5 -0.5,29.5 -0.5,-0.5 Z"/></g>
<g><path style="opacity:1" fill="#20c6c6" d="M 107.5,11.5 C 108.525,11.8966 108.692,12.5632 108,13.5C 106,15.5 104,17.5 102,19.5C 101.333,18.8333 101.333,18.1667 102,17.5C 104.04,15.6298 105.873,13.6298 107.5,11.5 Z"/></g>
<g><path style="opacity:1" fill="#3bcece" d="M 78.5,16.5 C 95.1625,16.825 100.663,24.825 95,40.5C 89.0526,46.8476 82.2193,48.0143 74.5,44C 68.8849,39.0317 67.0516,32.865 69,25.5C 71.4057,21.5915 74.5724,18.5915 78.5,16.5 Z"/></g>
<g><path style="opacity:1" fill="#3ecece" d="M 76.5,12.5 C 87.3972,10.5694 95.7306,14.2361 101.5,23.5C 103.65,21.8509 105.65,20.0176 107.5,18C 114.167,17.3333 120.833,17.3333 127.5,18C 128,18.5 128.5,19 129,19.5C 129.667,23.8333 129.667,28.1667 129,32.5C 124.633,28.7333 120.133,28.5667 115.5,32C 110.177,32.4994 104.844,32.666 99.5,32.5C 98.7541,19.9538 92.0875,14.1204 79.5,15C 76.2211,15.9728 73.2211,17.4728 70.5,19.5C 69.1667,18.5 69.1667,17.5 70.5,16.5C 72.5654,15.1433 74.5654,13.81 76.5,12.5 Z"/></g>
<g><path style="opacity:1" fill="#fafdfd" d="M 80.5,24.5 C 87.1411,24.6389 89.9745,27.9722 89,34.5C 85,38.5 81,38.5 77,34.5C 76.3333,32.5 76.3333,30.5 77,28.5C 78.3756,27.2949 79.5423,25.9616 80.5,24.5 Z"/></g>
<g><path style="opacity:1" fill="#3bcece" d="M 119.5,30.5 C 127.696,30.529 130.863,34.529 129,42.5C 123.837,48.0623 119.171,47.729 115,41.5C 113.776,36.626 115.276,32.9593 119.5,30.5 Z"/></g>
<g><path style="opacity:1" fill="#6f6f6e" d="M 113.5,65.5 C 114.812,60.9848 114.812,56.3181 113.5,51.5C 112.833,54.1667 112.167,56.8333 111.5,59.5C 110.893,59.3764 110.56,59.0431 110.5,58.5C 111.473,56.0521 111.806,53.3854 111.5,50.5C 112.833,50.5 114.167,50.5 115.5,50.5C 115.828,55.8746 115.495,61.2079 114.5,66.5C 113.893,66.3764 113.56,66.0431 113.5,65.5 Z"/></g>
<g><path style="opacity:1" fill="#242322" d="M 160.5,54.5 C 169.392,54.6284 170.059,55.9617 162.5,58.5C 168.067,58.5508 169.734,61.0508 167.5,66C 164.901,66.769 162.401,66.6023 160,65.5C 159.437,64.2752 159.77,63.2752 161,62.5C 162.494,63.7472 163.994,63.7472 165.5,62.5C 159.8,62.2887 158.134,59.6221 160.5,54.5 Z"/></g>
<g><path style="opacity:1" fill="#201f1f" d="M 49.5,54.5 C 52.5422,55.5411 55.5422,55.5411 58.5,54.5C 58.6657,58.8461 58.499,63.1794 58,67.5C 54.7002,70.9989 51.2002,71.3323 47.5,68.5C 50.3043,67.8953 52.971,67.062 55.5,66C 46.0815,65.9228 44.0815,62.0894 49.5,54.5 Z"/></g>
<g><path style="opacity:1" fill="#222120" d="M 61.5,54.5 C 63.5841,55.2483 65.5841,55.2483 67.5,54.5C 67.8333,55 68.1667,55.5 68.5,56C 64.9507,58.5551 63.6174,62.0551 64.5,66.5C 63.5,66.5 62.5,66.5 61.5,66.5C 61.5,62.5 61.5,58.5 61.5,54.5 Z"/></g>
<g><path style="opacity:1" fill="#1d1c1b" d="M 110.5,58.5 C 110.56,59.0431 110.893,59.3764 111.5,59.5C 112.167,56.8333 112.833,54.1667 113.5,51.5C 114.812,56.3181 114.812,60.9848 113.5,65.5C 110.878,63.2181 108.212,60.8848 105.5,58.5C 104.52,61.0865 104.187,63.7531 104.5,66.5C 103.5,66.5 102.5,66.5 101.5,66.5C 101.173,61.456 101.506,56.456 102.5,51.5C 105.186,53.8558 107.853,56.1891 110.5,58.5 Z"/></g>
<g><path style="opacity:1" fill="#f1f1f0" d="M 50.5,57.5 C 55.1585,57.0146 56.4919,58.848 54.5,63C 49.7282,63.8104 48.3948,61.9771 50.5,57.5 Z"/></g>
<g><path style="opacity:1" fill="#1e1d1c" d="M 36.5,51.5 C 37.3764,51.3691 38.0431,51.7025 38.5,52.5C 40.4125,56.6597 42.5791,60.6597 45,64.5C 45.5908,65.4835 45.2575,66.1501 44,66.5C 42.3003,64.6851 40.1336,63.6851 37.5,63.5C 34.8664,63.6851 32.6997,64.6851 31,66.5C 30.5,66.1667 30,65.8333 29.5,65.5C 31.8599,60.7802 34.1932,56.1136 36.5,51.5 Z"/></g>
<g><path style="opacity:1" fill="#aaaaa9" d="M 36.5,57.5 C 38.1207,57.7869 39.1207,58.7869 39.5,60.5C 38.1667,61.8333 36.8333,61.8333 35.5,60.5C 36.1272,59.5832 36.4606,58.5832 36.5,57.5 Z"/></g>
<g><path style="opacity:1" fill="#222221" d="M 83.5,54.5 C 86.3289,54.3249 87.9955,55.6582 88.5,58.5C 90.649,54.7113 92.4824,55.0446 94,59.5C 94.6872,57.4453 95.8539,55.7786 97.5,54.5C 98.0952,58.5562 96.9285,62.2229 94,65.5C 93.3848,63.8839 92.3848,62.5505 91,61.5C 90,62.8333 89,64.1667 88,65.5C 86.2006,61.93 84.7006,58.2634 83.5,54.5 Z"/></g>
<g><path style="opacity:1" fill="#262525" d="M 131.5,54.5 C 134.049,54.4411 136.049,55.4411 137.5,57.5C 144.293,53.5792 144.96,54.5792 139.5,60.5C 140.593,62.3492 141.926,64.0158 143.5,65.5C 142.833,65.8333 142.167,66.1667 141.5,66.5C 139.964,65.7515 138.631,64.7515 137.5,63.5C 136.369,64.7515 135.036,65.7515 133.5,66.5C 132.833,66.1667 132.167,65.8333 131.5,65.5C 133.074,64.0158 134.407,62.3492 135.5,60.5C 133.722,58.736 132.389,56.736 131.5,54.5 Z"/></g>
<g><path style="opacity:1" fill="#201f1e" d="M 73.5,54.5 C 77.3169,53.8258 80.1503,55.1592 82,58.5C 82.6346,64.781 79.8013,67.281 73.5,66C 68.2289,62.2223 68.2289,58.3889 73.5,54.5 Z"/></g>
<g><path style="opacity:1" fill="#e0e0e0" d="M 73.5,57.5 C 78.1225,56.4082 79.9558,58.0748 79,62.5C 73.4205,64.7516 71.5871,63.0849 73.5,57.5 Z"/></g>
<g><path style="opacity:1" fill="#1d1c1c" d="M 121.5,54.5 C 127.029,53.7496 130.029,56.0829 130.5,61.5C 119.465,61.8165 119.132,62.6498 129.5,64C 126.915,66.6532 123.915,67.1532 120.5,65.5C 117.663,61.5256 117.997,57.8589 121.5,54.5 Z"/></g>
<g><path style="opacity:1" fill="#ededed" d="M 121.5,57.5 C 123.288,57.2148 124.955,57.5481 126.5,58.5C 125.667,58.8333 124.833,59.1667 124,59.5C 122.624,59.3158 121.791,58.6491 121.5,57.5 Z"/></g>
<g><path style="opacity:1" fill="#272625" d="M 145.5,54.5 C 146.5,54.5 147.5,54.5 148.5,54.5C 148.5,57.5 148.5,60.5 148.5,63.5C 150.144,63.7135 151.644,63.3802 153,62.5C 153.497,59.854 153.664,57.1873 153.5,54.5C 154.5,54.5 155.5,54.5 156.5,54.5C 156.5,58.5 156.5,62.5 156.5,66.5C 153.319,66.0245 150.153,65.6912 147,65.5C 145.663,61.9743 145.163,58.3076 145.5,54.5 Z"/></g>
</svg>
