<?xml version="1.0" encoding="UTF-8"?>
<svg version="1.1" xmlns="http://www.w3.org/2000/svg" width="200" height="90">
<path d="M0 0 C66 0 132 0 200 0 C200 29.7 200 59.4 200 90 C134 90 68 90 0 90 C0 60.3 0 30.6 0 0 Z " fill="#FDFCFA" transform="translate(0,0)"/>
<path d="M0 0 C2 1.8125 2 1.8125 2.6875 4.1875 C1.68733173 8.00632431 -0.73640495 9.83469031 -4 11.8125 C-7.1163697 12.85606621 -10.26104169 13.40858768 -13.5 13.9375 C-21.6122386 15.29652963 -21.6122386 15.29652963 -29 18.8125 C-29.97474816 21.90211458 -29.97474816 21.90211458 -30 24.8125 C-27.36 24.8125 -24.72 24.8125 -22 24.8125 C-22 22.5025 -22 20.1925 -22 17.8125 C-21.01 17.8125 -20.02 17.8125 -19 17.8125 C-19 23.4225 -19 29.0325 -19 34.8125 C-19.99 34.8125 -20.98 34.8125 -22 34.8125 C-22 32.5025 -22 30.1925 -22 27.8125 C-24.64 27.8125 -27.28 27.8125 -30 27.8125 C-30 30.1225 -30 32.4325 -30 34.8125 C-31.32 34.8125 -32.64 34.8125 -34 34.8125 C-35.22690583 19.35689462 -35.22690583 19.35689462 -32.21875 15.5703125 C-30.16167009 14.34620509 -28.29963851 13.46440645 -26 12.8125 C-26.99 12.8125 -27.98 12.8125 -29 12.8125 C-29.66 12.8125 -30.32 12.8125 -31 12.8125 C-31 12.1525 -31 11.4925 -31 10.8125 C-29.68 10.1525 -28.36 9.4925 -27 8.8125 C-29.31 8.8125 -31.62 8.8125 -34 8.8125 C-34 8.1525 -34 7.4925 -34 6.8125 C-33.42894531 6.65394531 -32.85789063 6.49539062 -32.26953125 6.33203125 C-27.16527206 4.86323807 -22.29001216 3.14376812 -17.375 1.125 C-11.03835392 -1.34256453 -6.53412508 -2.58642451 0 0 Z " fill="#EC6B19" transform="translate(68,27.1875)"/>
<path d="M0 0 C1.1148552 0.86134018 2.21638319 1.73993674 3.3125 2.625 C4.23482422 3.35589844 4.23482422 3.35589844 5.17578125 4.1015625 C8.58042704 7.64472707 9.99575472 10.68820853 10.01171875 15.62109375 C9.90472656 16.88050781 9.79773438 18.13992187 9.6875 19.4375 C9.43869024 24.82248512 9.43869024 24.82248512 11.76953125 29.4609375 C13.94298542 31.33313634 13.94298542 31.33313634 16.25 32.80078125 C16.8275 33.19652344 17.405 33.59226563 18 34 C18 34.66 18 35.32 18 36 C18.66 36 19.32 36 20 36 C20 32.7 20 29.4 20 26 C20.99 26 21.98 26 23 26 C23 31.61 23 37.22 23 43 C19.5927781 41.29638905 17.51964294 39.86767864 14.75 37.375 C14.04359375 36.74335937 13.3371875 36.11171875 12.609375 35.4609375 C12.07828125 34.97882812 11.5471875 34.49671875 11 34 C11 36.97 11 39.94 11 43 C9.68 43 8.36 43 7 43 C6.67 39.37 6.34 35.74 6 32 C6 34.31 6 36.62 6 39 C5.01 38.67 4.02 38.34 3 38 C1.54630948 35.09261897 1.70360587 33.26033542 2 30 C2.62650179 28.54454605 3.2973257 27.10774629 4 25.6875 C6.19502761 21.01522694 6.92463984 17.11271441 6 12 C4.92199223 9.15889541 3.53458144 6.61550924 2 4 C1.32496678 2.67088286 0.65600749 1.33860987 0 0 Z " fill="#EB6817" transform="translate(123,19)"/>
<path d="M0 0 C3.46145669 0.86536417 4.94931405 2.62635769 6.9375 5.484375 C7.6821324 9.45574781 7.31016878 10.92537183 5.0625 14.296875 C2.37052791 17.06802273 1.487107 17.4117854 -2.375 17.921875 C-6.0625 17.484375 -6.0625 17.484375 -9 14.859375 C-11.25068265 11.17643975 -11.95676216 9.68740714 -11.0625 5.484375 C-7.96567477 1.03268873 -5.27078558 -0.35937174 0 0 Z " fill="#EB610A" transform="translate(87.0625,44.515625)"/>
<path d="M0 0 C8 0 8 0 10.5 1.0625 C12.77541639 4.0015795 12.32194022 6.39426955 12 10 C11.67 10.99 11.34 11.98 11 13 C11.87914688 15.6569191 11.87914688 15.6569191 13 18 C11.68 18 10.36 18 9 18 C8.34 16.35 7.68 14.7 7 13 C6.01 13 5.02 13 4 13 C4 14.65 4 16.3 4 18 C2.68 18 1.36 18 0 18 C0 12.06 0 6.12 0 0 Z " fill="#ED762C" transform="translate(97,44)"/>
<path d="M0 0 C2 1.8125 2 1.8125 2.6875 4.1875 C1.68722742 8.00672259 -0.75594907 9.82744979 -4 11.8125 C-7.93805186 13.12518395 -11.87363447 12.89340913 -16 12.8125 C-13.10028497 9.445089 -10.1352135 8.79100464 -5.9609375 7.65625 C-5.31382813 7.3778125 -4.66671875 7.099375 -4 6.8125 C-3.67 5.8225 -3.34 4.8325 -3 3.8125 C-8.97058482 3.54565822 -13.46585406 4.30400437 -19.0625 6.3125 C-24.24397575 8.16124255 -28.39593812 9.10399867 -34 8.8125 C-34 8.1525 -34 7.4925 -34 6.8125 C-33.42894531 6.65394531 -32.85789063 6.49539062 -32.26953125 6.33203125 C-27.16527206 4.86323807 -22.29001216 3.14376812 -17.375 1.125 C-11.03835392 -1.34256453 -6.53412508 -2.58642451 0 0 Z " fill="#EB640C" transform="translate(68,27.1875)"/>
<path d="M0 0 C-0.33 1.32 -0.66 2.64 -1 4 C-3.97 4 -6.94 4 -10 4 C-10.16677282 7.41656024 -10.16677282 7.41656024 -10 11 C-7.64046906 13.35953094 -6.22104383 13.49141413 -3 14 C-3 13.01 -3 12.02 -3 11 C-3.99 11 -4.98 11 -6 11 C-6 10.01 -6 9.02 -6 8 C-3.69 8 -1.38 8 1 8 C1 10.64 1 13.28 1 16 C-2.73549423 17.24516474 -6.13451204 17.78060339 -10 17 C-13.0625 14.4375 -13.0625 14.4375 -15 11 C-15.06707576 7.10960607 -14.53104057 4.90046011 -12.5625 1.5625 C-8.570564 -0.87160732 -4.55830485 -0.31316598 0 0 Z " fill="#EB6914" transform="translate(164,45)"/>
<path d="M0 0 C0 1.32 0 2.64 0 4 C-5.62863136 9.62863136 -20.33271861 9.53773148 -28 10 C-28 9.34 -28 8.68 -28 8 C-25.4609375 6.92578125 -25.4609375 6.92578125 -22.921875 5.8515625 C-21.60875648 5.26973356 -20.31177739 4.65042661 -19.03125 4 C-12.69855139 0.88236376 -7.03574371 -0.38376784 0 0 Z " fill="#FADDCA" transform="translate(65,30)"/>
<path d="M0 0 C3.96 0 7.92 0 12 0 C12 0.99 12 1.98 12 3 C9.03 3 6.06 3 3 3 C3 4.32 3 5.64 3 7 C5.31 7 7.62 7 10 7 C10 7.99 10 8.98 10 10 C7.69 10 5.38 10 3 10 C3 11.32 3 12.64 3 14 C5.97 14 8.94 14 12 14 C12 14.99 12 15.98 12 17 C8.04 17 4.08 17 0 17 C0 11.39 0 5.78 0 0 Z " fill="#EA5A02" transform="translate(54,45)"/>
<path d="M0 0 C3.63 0 7.26 0 11 0 C11 0.99 11 1.98 11 3 C8.36 3 5.72 3 3 3 C3 4.32 3 5.64 3 7 C5.31 7 7.62 7 10 7 C10 7.99 10 8.98 10 10 C7.69 10 5.38 10 3 10 C3 11.32 3 12.64 3 14 C5.97 14 8.94 14 12 14 C12 14.99 12 15.98 12 17 C8.04 17 4.08 17 0 17 C0 11.39 0 5.78 0 0 Z " fill="#EA5F04" transform="translate(169,45)"/>
<path d="M0 0 C2.7083445 2.36012878 3.85019927 4.59993115 5.125 7.9375 C5.45757812 8.79214844 5.79015625 9.64679687 6.1328125 10.52734375 C6.88608975 12.67520185 7.49580016 14.78254968 8 17 C6.68 16.67 5.36 16.34 4 16 C4 15.34 4 14.68 4 14 C1.69 14 -0.62 14 -3 14 C-3.33 14.99 -3.66 15.98 -4 17 C-4.99 17 -5.98 17 -7 17 C-5.24009216 11.08030998 -2.60305395 5.58365008 0 0 Z " fill="#EB630B" transform="translate(119,45)"/>
<path d="M0 0 C3.34675135 0.95828889 6.67465457 1.96998646 10 3 C10.93457031 3.2784375 11.86914062 3.556875 12.83203125 3.84375 C20.03188989 6.17992791 26.06153371 9.47098774 30.27734375 15.96875 C31.14164055 18.39812478 30.85454484 19.60727445 30 22 C29.69707031 21.46890625 29.39414063 20.9378125 29.08203125 20.390625 C23.94639282 11.7311485 18.41141215 9.09867861 9 6 C9.03480469 6.74765625 9.06960937 7.4953125 9.10546875 8.265625 C9.13253906 9.25046875 9.15960938 10.2353125 9.1875 11.25 C9.22230469 12.22453125 9.25710937 13.1990625 9.29296875 14.203125 C8.96075202 17.37468742 8.11327721 18.67040307 6 21 C6.05800781 20.29875 6.11601562 19.5975 6.17578125 18.875 C6.5194631 11.64786163 5.36043704 7.70430945 1 2 C0.67 1.34 0.34 0.68 0 0 Z " fill="#EC6E28" transform="translate(128,21)"/>
<path d="M0 0 C3 0.25 3 0.25 5 2.25 C5.3125 5.75 5.3125 5.75 5 9.25 C1.77626323 11.39915785 0.73296326 11.63286803 -3 11.25 C-5 9.25 -5 9.25 -5.25 5.75 C-4.93427155 1.32980166 -4.46370491 0.37197541 0 0 Z " fill="#FEF6F1" transform="translate(85,47.75)"/>
<path d="M0 0 C3.96 0 7.92 0 12 0 C12 0.99 12 1.98 12 3 C10.68 3 9.36 3 8 3 C8 7.62 8 12.24 8 17 C6.68 17 5.36 17 4 17 C4 12.38 4 7.76 4 3 C2.68 3 1.36 3 0 3 C0 2.01 0 1.02 0 0 Z " fill="#EB6B18" transform="translate(19,45)"/>
<path d="M0 0 C-3.50538557 1.96301592 -7.13351728 2.95902388 -11 4 C-11 4.66 -11 5.32 -11 6 C-24.6332574 10.59225513 -24.6332574 10.59225513 -31 10 C-31 9.34 -31 8.68 -31 8 C-30.42894531 7.84144531 -29.85789063 7.68289062 -29.26953125 7.51953125 C-24.16527206 6.05073807 -19.29001216 4.33126812 -14.375 2.3125 C-9.24404268 0.28440563 -5.47393128 -0.53665993 0 0 Z " fill="#ED7323" transform="translate(65,26)"/>
<path d="M0 0 C0.928125 0.5259375 0.928125 0.5259375 1.875 1.0625 C2.57625 1.371875 3.2775 1.68125 4 2 C6.23470405 1.21690533 6.23470405 1.21690533 8 0 C9.42944945 2.35438733 10.08661261 3.48032433 9.625 6.25 C9.41875 6.8275 9.2125 7.405 9 8 C8.278125 7.814375 7.55625 7.62875 6.8125 7.4375 C4.01214155 6.83247571 4.01214155 6.83247571 1.3125 7.5625 C0.549375 7.706875 -0.21375 7.85125 -1 8 C-1.66 7.34 -2.32 6.68 -3 6 C-2.75 3.4375 -2.75 3.4375 -2 1 C-1.34 0.67 -0.68 0.34 0 0 Z " fill="#B2B1B1" transform="translate(100,68)"/>
<path d="M0 0 C0.66 0.99 1.32 1.98 2 3 C1.10861328 3.07734375 1.10861328 3.07734375 0.19921875 3.15625 C-6.82586629 4.11769243 -11.142331 6.83843028 -16.65234375 11.22265625 C-20.03026927 13.77998755 -22.5744827 14.12210895 -26.6875 14.0625 C-27.89986328 14.04896484 -27.89986328 14.04896484 -29.13671875 14.03515625 C-30.05904297 14.01775391 -30.05904297 14.01775391 -31 14 C-31 13.67 -31 13.34 -31 13 C-29.1746875 12.7834375 -29.1746875 12.7834375 -27.3125 12.5625 C-21.27921371 11.26965294 -16.77696961 7.68112581 -11.91796875 4.09375 C-7.88505829 1.19998828 -5.06904958 -0.66698021 0 0 Z " fill="#EB6316" transform="translate(104,17)"/>
<path d="M0 0 C0.33 0.66 0.66 1.32 1 2 C0.01 2 -0.98 2 -2 2 C-2 4.31 -2 6.62 -2 9 C-4.64 9 -7.28 9 -10 9 C-10 7.02 -10 5.04 -10 3 C-3.375 -1.125 -3.375 -1.125 0 0 Z " fill="#FCECE0" transform="translate(48,43)"/>
<path d="M0 0 C0.99 0 1.98 0 3 0 C3 5.61 3 11.22 3 17 C-1.53786224 14.73106888 -2.94678157 12.90133466 -6 9 C-3.03 9.495 -3.03 9.495 0 10 C0 6.7 0 3.4 0 0 Z " fill="#EB630E" transform="translate(143,45)"/>
<path d="M0 0 C4.5097157 3.4842187 8.14371938 6.43115813 10 12 C10.55632178 17.06073363 10.37571496 21.39705226 8 26 C6 24 6 24 5.9453125 21.4609375 C6.03425781 19.93339844 6.03425781 19.93339844 6.125 18.375 C6.23827087 12.47075598 5.07095963 8.93146801 2 4 C1.32213714 2.67232377 0.65252079 1.34031297 0 0 Z " fill="#EB640B" transform="translate(123,19)"/>
<path d="M0 0 C0.33 0.99 0.66 1.98 1 3 C-1.97 3 -4.94 3 -8 3 C-8 4.32 -8 5.64 -8 7 C-5.69 7 -3.38 7 -1 7 C-1 7.99 -1 8.98 -1 10 C-3.31 10 -5.62 10 -8 10 C-8.33 11.32 -8.66 12.64 -9 14 C-9.8723412 11.00519083 -10.10829766 8.36424089 -10.0625 5.25 C-10.05347656 4.45078125 -10.04445312 3.6515625 -10.03515625 2.828125 C-10.02355469 2.22484375 -10.01195312 1.6215625 -10 1 C-9.36191406 1.01160156 -8.72382812 1.02320313 -8.06640625 1.03515625 C-7.24011719 1.04417969 -6.41382813 1.05320313 -5.5625 1.0625 C-4.32693359 1.07990234 -4.32693359 1.07990234 -3.06640625 1.09765625 C-1.00836062 1.23267348 -1.00836062 1.23267348 0 0 Z " fill="#EB6810" transform="translate(65,45)"/>
<path d="M0 0 C-1 2 -1 2 -3.28491211 2.77783203 C-4.27241455 3.01872559 -5.25991699 3.25961914 -6.27734375 3.5078125 C-7.88319336 3.90419922 -7.88319336 3.90419922 -9.52148438 4.30859375 C-10.64876953 4.57800781 -11.77605469 4.84742188 -12.9375 5.125 C-14.06091797 5.40214844 -15.18433594 5.67929687 -16.34179688 5.96484375 C-24.67791718 8 -24.67791718 8 -27 8 C-27 7.34 -27 6.68 -27 6 C-24.00630815 4.9804093 -21.0042319 3.98805849 -18 3 C-17.16082031 2.71382812 -16.32164063 2.42765625 -15.45703125 2.1328125 C-10.0780802 0.38152611 -5.6550492 -0.3141694 0 0 Z " fill="#EB6517" transform="translate(64,32)"/>
<path d="M0 0 C0.66 0.66 1.32 1.32 2 2 C0.77023438 2.29003906 0.77023438 2.29003906 -0.484375 2.5859375 C-2.10085937 2.97652344 -2.10085937 2.97652344 -3.75 3.375 C-4.81734375 3.63023438 -5.8846875 3.88546875 -6.984375 4.1484375 C-9.59318399 4.8851219 -11.74261924 5.50927685 -14 7 C-14.81584568 10.05908413 -14.81584568 10.05908413 -15 13 C-15.33 13 -15.66 13 -16 13 C-16.33 10.36 -16.66 7.72 -17 5 C-12.16419402 1.46160538 -6.12732925 -2.72325744 0 0 Z " fill="#EC6D20" transform="translate(53,39)"/>
<path d="M0 0 C3.77126791 1.01180358 4.78414572 1.67621858 7 5 C7.125 8.1875 7.125 8.1875 7 11 C5.68 11 4.36 11 3 11 C2.62875 9.329375 2.62875 9.329375 2.25 7.625 C1.38994661 3.95384802 1.38994661 3.95384802 -1.125 2.5625 C-1.74375 2.376875 -2.3625 2.19125 -3 2 C-2.01 1.34 -1.02 0.68 0 0 Z " fill="#EB6712" transform="translate(87,45)"/>
<path d="M0 0 C0.99 0 1.98 0 3 0 C3 5.61 3 11.22 3 17 C2.01 17 1.02 17 0 17 C0 11.39 0 5.78 0 0 Z " fill="#EA6007" transform="translate(46,45)"/>
<path d="M0 0 C1.9375 0.8125 1.9375 0.8125 4 2 C4.33 2.99 4.66 3.98 5 5 C4.01 6.485 4.01 6.485 3 8 C1.35 7.67 -0.3 7.34 -2 7 C-2.33 5.35 -2.66 3.7 -3 2 C-2.01 1.34 -1.02 0.68 0 0 Z " fill="#AEAEAE" transform="translate(78,68)"/>
<path d="M0 0 C3.69230769 0.69230769 3.69230769 0.69230769 5 2 C5.04063832 3.66617115 5.042721 5.33388095 5 7 C2.625 7.625 2.625 7.625 0 8 C-0.66 7.34 -1.32 6.68 -2 6 C-1.44444444 1.44444444 -1.44444444 1.44444444 0 0 Z " fill="#ACABAB" transform="translate(47,68)"/>
<path d="M0 0 C0.33 0 0.66 0 1 0 C1.48828125 1.98567708 1.9765625 3.97135417 2.46484375 5.95703125 C2.91010705 7.65683202 3.44433985 9.33301954 4 11 C2.68 11 1.36 11 0 11 C-1.04892238 9.36368108 -2.04906703 7.69514137 -3 6 C-3.99 5.67 -4.98 5.34 -6 5 C-6 4.34 -6 3.68 -6 3 C-5.195625 2.690625 -4.39125 2.38125 -3.5625 2.0625 C-1.10919595 1.23664655 -1.10919595 1.23664655 0 0 Z " fill="#EB630C" transform="translate(106,51)"/>
<path d="M0 0 C0.33 0 0.66 0 1 0 C0.85892253 1.45880109 0.71197585 2.91703551 0.5625 4.375 C0.48128906 5.18710937 0.40007812 5.99921875 0.31640625 6.8359375 C0 9 0 9 -1 11 C0.32 11.33 1.64 11.66 3 12 C3 12.33 3 12.66 3 13 C1.02 13 -0.96 13 -3 13 C-3.93045933 10.44855176 -4.08564091 9.25993522 -3.22265625 6.640625 C-2.83980469 5.85171875 -2.45695312 5.0628125 -2.0625 4.25 C-1.68222656 3.45078125 -1.30195312 2.6515625 -0.91015625 1.828125 C-0.60980469 1.22484375 -0.30945313 0.6215625 0 0 Z " fill="#EA610A" transform="translate(119,45)"/>
<path d="M0 0 C0.93619813 3.15506142 1.1057123 5.96586502 1.0625 9.25 C1.05347656 10.14203125 1.04445312 11.0340625 1.03515625 11.953125 C1.02355469 12.62859375 1.01195312 13.3040625 1 14 C0.01 13.67 -0.98 13.34 -2 13 C-3.41000664 10.17998673 -3.24548451 8.12992745 -3 5 C-1.5 2.125 -1.5 2.125 0 0 Z " fill="#EB630F" transform="translate(128,44)"/>
<path d="M0 0 C-1.60881743 1.6892583 -3.14256672 3.09936469 -5.0625 4.4375 C-7.16357686 6.13191682 -7.97843578 7.53121981 -9 10 C-9.75 7.25 -9.75 7.25 -10 4 C-7.24457744 -0.1882423 -4.82225135 -0.43838649 0 0 Z " fill="#EA5D08" transform="translate(87,45)"/>
<path d="M0 0 C1.98 0.99 1.98 0.99 4 2 C3.67 8.27 3.34 14.54 3 21 C2.67 21 2.34 21 2 21 C1.93941406 20.11957031 1.87882813 19.23914063 1.81640625 18.33203125 C1.73261719 17.17058594 1.64882812 16.00914063 1.5625 14.8125 C1.48128906 13.66394531 1.40007812 12.51539063 1.31640625 11.33203125 C1.04567761 8.48102476 0.5752837 5.79906942 0 3 C0 2.01 0 1.02 0 0 Z " fill="#EF8538" transform="translate(128,41)"/>
<path d="M0 0 C0.66 0 1.32 0 2 0 C2.02686553 1.97909398 2.04633375 3.95828971 2.0625 5.9375 C2.07410156 7.03964844 2.08570312 8.14179688 2.09765625 9.27734375 C2 12 2 12 1 13 C-0.66617115 13.04063832 -2.33388095 13.042721 -4 13 C-3.27876953 12.41798828 -3.27876953 12.41798828 -2.54296875 11.82421875 C-0.54250502 9.45911353 -0.51123932 7.87308547 -0.3125 4.8125 C-0.21388672 3.46091797 -0.21388672 3.46091797 -0.11328125 2.08203125 C-0.05720703 1.05142578 -0.05720703 1.05142578 0 0 Z " fill="#EC6F26" transform="translate(104,23)"/>
<path d="M0 0 C1.32 0.66 2.64 1.32 4 2 C4 3.98 4 5.96 4 8 C2.33333333 8 0.66666667 8 -1 8 C-1.04241723 5.66705225 -1.04092937 3.33297433 -1 1 C-0.67 0.67 -0.34 0.34 0 0 Z " fill="#B6B6B6" transform="translate(132,68)"/>
<path d="M0 0 C1.13199353 0.9080162 2.25532363 1.82683826 3.375 2.75 C4.00148438 3.26046875 4.62796875 3.7709375 5.2734375 4.296875 C7.1349903 6.13315785 8.07794439 7.55981242 9 10 C9 11.32 9 12.64 9 14 C8.34 14 7.68 14 7 14 C4.66666667 9.33333333 2.33333333 4.66666667 0 0 Z " fill="#EA6118" transform="translate(123,19)"/>
<path d="M0 0 C3.875 1.875 3.875 1.875 5 3 C5.66 2.01 6.32 1.02 7 0 C7 1.98 7 3.96 7 6 C5.68 5.34 4.36 4.68 3 4 C2.67 4.99 2.34 5.98 2 7 C1.34 7 0.68 7 0 7 C0 4.69 0 2.38 0 0 Z " fill="#AAAAAA" transform="translate(142,69)"/>
<path d="M0 0 C1.32 0 2.64 0 4 0 C3.67 1.65 3.34 3.3 3 5 C2.34 5 1.68 5 1 5 C1 5.66 1 6.32 1 7 C1.99 7.33 2.98 7.66 4 8 C2.35 8 0.7 8 -1 8 C-1.04241723 5.66705225 -1.04092937 3.33297433 -1 1 C-0.67 0.67 -0.34 0.34 0 0 Z " fill="#B4B4B4" transform="translate(151,68)"/>
<path d="M0 0 C8.57142857 -0.28571429 8.57142857 -0.28571429 12 2 C8.98509443 3.00496852 6.95818308 3.10335303 3.8125 3.0625 C2.46091797 3.04896484 2.46091797 3.04896484 1.08203125 3.03515625 C0.39496094 3.02355469 -0.29210937 3.01195312 -1 3 C-0.67 2.01 -0.34 1.02 0 0 Z " fill="#EC6E2A" transform="translate(111,19)"/>
<path d="M0 0 C0.66 0.99 1.32 1.98 2 3 C0.54364629 3.22174933 -0.91522956 3.42698698 -2.375 3.625 C-3.18710938 3.74101562 -3.99921875 3.85703125 -4.8359375 3.9765625 C-5.55007812 3.98429687 -6.26421875 3.99203125 -7 4 C-7.66 3.34 -8.32 2.68 -9 2 C-5.89782379 0.16167336 -3.60591321 -0.47446226 0 0 Z " fill="#ED7535" transform="translate(104,17)"/>
<path d="M0 0 C2.475 0.495 2.475 0.495 5 1 C4.67 2.32 4.34 3.64 4 5 C2.68 5 1.36 5 0 5 C0 3.35 0 1.7 0 0 Z " fill="#FEF8F4" transform="translate(101,48)"/>
<path d="M0 0 C3.96 0.99 3.96 0.99 8 2 C8 2.33 8 2.66 8 3 C6.02 3 4.04 3 2 3 C1.67 3.99 1.34 4.98 1 6 C0.01 6 -0.98 6 -2 6 C-1.34 4.02 -0.68 2.04 0 0 Z " fill="#EC701E" transform="translate(114,56)"/>
<path d="M0 0 C0.66 0 1.32 0 2 0 C2 1.98 2 3.96 2 6 C0.68 6 -0.64 6 -2 6 C-2 4.68 -2 3.36 -2 2 C-1.34 2 -0.68 2 0 2 C0 1.34 0 0.68 0 0 Z " fill="#ED7224" transform="translate(92,50)"/>
<path d="M0 0 C0.66 0.66 1.32 1.32 2 2 C2.66 1.67 3.32 1.34 4 1 C4 2.98 4 4.96 4 7 C3.01 7.33 2.02 7.66 1 8 C-0.35439668 5.29120665 -0.06501451 2.99066732 0 0 Z " fill="#ED7524" transform="translate(76,50)"/>
<path d="M0 0 C1.32 0 2.64 0 4 0 C3.67 2.64 3.34 5.28 3 8 C2.34 8 1.68 8 1 8 C0.67 5.36 0.34 2.72 0 0 Z " fill="#B9B9B8" transform="translate(137,68)"/>
<path d="M0 0 C1.98 0.495 1.98 0.495 4 1 C3.67 2.32 3.34 3.64 3 5 C1.68 4.67 0.36 4.34 -1 4 C-0.67 2.68 -0.34 1.36 0 0 Z " fill="#FCFCFC" transform="translate(47,70)"/>
<path d="M0 0 C1.32 0.33 2.64 0.66 4 1 C3.67 2.32 3.34 3.64 3 5 C2.34 5 1.68 5 1 5 C0.67 5.66 0.34 6.32 0 7 C0 4.69 0 2.38 0 0 Z " fill="#BABABA" transform="translate(120,68)"/>
<path d="M0 0 C0.66 0 1.32 0 2 0 C2 2.64 2 5.28 2 8 C0.68 7.67 -0.64 7.34 -2 7 C-1.34 4.69 -0.68 2.38 0 0 Z " fill="#EC6F23" transform="translate(163,53)"/>
<path d="M0 0 C-0.33 0.99 -0.66 1.98 -1 3 C-3.31 3 -5.62 3 -8 3 C-8 2.34 -8 1.68 -8 1 C-5.07175348 0.02391783 -3.04386724 -0.08226668 0 0 Z " fill="#EE7A39" transform="translate(42,33)"/>
<path d="M0 0 C1.98 0.495 1.98 0.495 4 1 C3.67 2.32 3.34 3.64 3 5 C1.68 4.34 0.36 3.68 -1 3 C-0.67 2.01 -0.34 1.02 0 0 Z " fill="#FDFDFD" transform="translate(99,70)"/>
<path d="M0 0 C1.98 0.495 1.98 0.495 4 1 C3.67 2.32 3.34 3.64 3 5 C1.68 4.34 0.36 3.68 -1 3 C-0.67 2.01 -0.34 1.02 0 0 Z " fill="#FCFCFC" transform="translate(77,70)"/>
<path d="M0 0 C-0.33 0.99 -0.66 1.98 -1 3 C-3.31 3 -5.62 3 -8 3 C-5.53387212 -0.1151089 -3.89156016 -0.31553191 0 0 Z " fill="#EA5D09" transform="translate(60,37)"/>
<path d="M0 0 C-0.33 0.66 -0.66 1.32 -1 2 C-4.0625 2.625 -4.0625 2.625 -7 3 C-7 2.01 -7 1.02 -7 0 C-4.3333581 -1.33332095 -2.83319697 -0.67102033 0 0 Z " fill="#EB6310" transform="translate(49,32)"/>
<path d="M0 0 C2.56687367 3.8503105 1.83288724 5.58569763 1 10 C0.01 10 -0.98 10 -2 10 C-1.34 6.7 -0.68 3.4 0 0 Z " fill="#F3A56E" transform="translate(120,46)"/>
<path d="M0 0 C1.32 0.33 2.64 0.66 4 1 C2.875 2.5625 2.875 2.5625 1 4 C-2.1875 3.6875 -2.1875 3.6875 -5 3 C-5 2.34 -5 1.68 -5 1 C-2.525 1.495 -2.525 1.495 0 2 C0 1.34 0 0.68 0 0 Z " fill="#EC6A11" transform="translate(104,45)"/>
<path d="M0 0 C0.66 0 1.32 0 2 0 C2.33 0.99 2.66 1.98 3 3 C2.01 3.495 2.01 3.495 1 4 C0.34227572 7.02934491 0.34227572 7.02934491 0 10 C-0.33 10 -0.66 10 -1 10 C-1.9765625 3.9453125 -1.9765625 3.9453125 -2 2 C-1.34 1.34 -0.68 0.68 0 0 Z " fill="#ED772C" transform="translate(38,42)"/>
<path d="M0 0 C1.35439668 2.70879335 1.06501451 5.00933268 1 8 C0.01 8.33 -0.98 8.66 -2 9 C-2.25 3.375 -2.25 3.375 0 0 Z " fill="#EC6C20" transform="translate(102,23)"/>
</svg>
